<?xml version="1.0" encoding="UTF-8"?>
<svg version="1.2" width="80.04mm" height="25.85mm" viewBox="0 0 8004 2585" xmlns="http://www.w3.org/2000/svg" xmlns:xlink="http://www.w3.org/1999/xlink">
	<path fill="rgb(0,51,0)" d="M6427,1268C6425,1268 6741,1268 7132,1268 7523,1268 7841,1268 7841,1268 7843,1268 7527,1268 7137,1268 6746,1268 6428,1268 6427,1268Z"/>
	<path fill="rgb(0,161,0)" d="M6427,1269C6427,1228 6429,1173 6432,1132 6436,1083 6441,1031 6449,976 6457,923 6467,867 6479,811 6491,755 6506,698 6523,643 6540,586 6559,531 6582,478 6604,426 6628,374 6656,327 6683,279 6714,235 6747,196 6781,156 6817,121 6857,93 6896,64 6939,40 6986,25 7032,9 7081,0 7135,0 7188,0 7238,9 7284,25 7330,40 7373,64 7412,93 7452,121 7488,156 7522,196 7556,235 7586,279 7614,327 7641,374 7666,426 7688,478 7711,531 7730,586 7747,643 7763,698 7778,755 7791,811 7802,867 7812,923 7820,976 7828,1031 7834,1083 7837,1132 7839,1173 7872,1240 7842,1269 7842,1269 7523,1269 7132,1269 6742,1269 6425,1269 6427,1269Z"/>
	<path fill="rgb(0,161,0)" d="M7746,642C7763,698 7777,754 7790,810 7802,866 7812,923 7820,976 7828,1031 7833,1082 7837,1131 7839,1173 7842,1227 7842,1268 7842,1268 7795,1268 7713,1268 7851,1185 7800,768 7703,517 7719,558 7734,600 7746,642Z"/>
	<path fill="rgb(0,161,0)" d="M7226,9C7098,-14 7046,45 7071,186 7076,210 7181,784 7429,1137 7458,1178 7495,1230 7574,1269 7453,1269 7299,1269 7133,1269 6742,1269 6425,1269 6427,1269 6429,1184 6429,1178 6432,1132 6436,1083 6441,1031 6449,976 6457,923 6467,867 6479,811 6491,755 6506,698 6523,643 6540,586 6559,531 6582,478 6604,426 6628,374 6656,327 6683,279 6714,235 6747,196 6781,156 6818,121 6857,93 6897,64 6939,40 6986,25 7032,9 7082,0 7135,0 7167,0 7197,3 7226,9Z"/>
	<path fill="rgb(0,159,0)" d="M7747,643C7763,699 7778,755 7791,811 7802,867 7813,923 7820,977 7828,1031 7834,1083 7837,1132 7840,1174 7842,1228 7843,1269 7842,1269 7805,1269 7739,1269 7864,1121 7777,720 7716,551 7727,580 7737,611 7747,643Z"/>
	<path fill="rgb(0,159,0)" d="M7217,7C7060,-18 7047,91 7065,186 7066,192 7215,878 7430,1166 7470,1219 7479,1227 7536,1269 7421,1269 7282,1269 7133,1269 6742,1269 6425,1269 6427,1269 6429,1184 6429,1178 6432,1132 6436,1083 6441,1031 6449,976 6457,923 6467,867 6479,811 6491,755 6506,698 6523,643 6540,586 6559,531 6582,478 6604,426 6628,374 6656,327 6683,279 6714,235 6747,196 6781,156 6818,121 6857,93 6897,64 6939,40 6986,25 7032,9 7082,0 7135,0 7163,0 7191,3 7217,7Z"/>
	<path fill="rgb(0,157,0)" d="M7747,642C7763,698 7778,754 7791,810 7803,866 7813,923 7820,976 7828,1031 7834,1082 7838,1131 7840,1173 7843,1227 7843,1268 7843,1268 7812,1268 7759,1268 7827,1185 7832,889 7728,584 7735,604 7741,622 7747,642Z"/>
	<path fill="rgb(0,157,0)" d="M7207,6C7018,-21 7051,153 7067,236 7068,243 7216,913 7430,1194 7431,1194 7464,1236 7506,1269 7398,1269 7270,1269 7133,1269 6742,1269 6425,1269 6427,1269 6429,1184 6429,1178 6432,1132 6436,1083 6441,1031 6449,976 6457,923 6467,867 6479,811 6491,755 6506,698 6523,643 6540,586 6559,531 6582,478 6604,426 6628,374 6656,327 6683,279 6714,235 6747,196 6781,156 6818,121 6857,93 6897,64 6939,40 6986,25 7032,9 7082,0 7135,0 7160,0 7184,2 7207,6Z"/>
	<path fill="rgb(0,154,0)" d="M7746,642C7763,698 7777,754 7790,811 7802,866 7812,923 7820,976 7828,1031 7834,1082 7837,1132 7840,1173 7842,1228 7842,1269 7842,1269 7816,1269 7771,1269 7872,1056 7753,664 7739,619 7741,626 7744,635 7746,642Z"/>
	<path fill="rgb(0,154,0)" d="M7198,5C7033,-14 7036,112 7060,236 7074,310 7249,1014 7431,1220 7444,1236 7465,1254 7480,1269 7377,1269 7258,1269 7133,1269 6742,1269 6425,1269 6427,1269 6429,1184 6429,1178 6432,1132 6436,1083 6441,1031 6449,976 6457,923 6467,867 6479,811 6491,755 6506,698 6523,643 6540,586 6559,531 6582,478 6604,426 6628,374 6656,327 6683,279 6714,235 6747,196 6781,156 6818,121 6857,93 6897,64 6939,40 6986,25 7032,9 7082,0 7135,0 7156,0 7178,1 7198,5Z"/>
	<path fill="rgb(0,152,0)" d="M7790,810C7802,866 7812,923 7820,976 7828,1031 7833,1082 7837,1131 7839,1173 7842,1227 7842,1269 7842,1269 7821,1269 7782,1269 7836,1155 7823,902 7750,656 7765,707 7778,759 7790,810Z"/>
	<path fill="rgb(0,152,0)" d="M7189,3C7004,-14 7037,162 7053,236 7054,244 7231,1023 7431,1243 7438,1252 7450,1261 7457,1269 7360,1269 7249,1269 7133,1269 6742,1269 6425,1269 6427,1269 6429,1184 6429,1178 6432,1132 6436,1083 6441,1031 6449,976 6457,923 6467,867 6479,811 6491,755 6506,698 6523,643 6540,586 6559,531 6582,478 6604,426 6628,374 6656,327 6683,279 6714,235 6747,196 6781,156 6818,121 6857,93 6897,64 6939,40 6986,25 7032,9 7082,0 7135,0 7153,0 7172,1 7189,3Z"/>
	<path fill="rgb(0,149,0)" d="M7790,810C7802,866 7812,923 7820,976 7828,1031 7833,1082 7837,1132 7839,1173 7842,1228 7842,1269 7842,1269 7825,1269 7792,1269 7850,1078 7798,826 7761,693 7772,732 7781,772 7790,810Z"/>
	<path fill="rgb(0,149,0)" d="M7180,3C7054,-7 7011,67 7045,236 7047,244 7225,1046 7431,1267 7432,1268 7433,1268 7434,1269 7342,1269 7240,1269 7133,1269 6742,1269 6425,1269 6427,1269 6429,1184 6429,1178 6432,1132 6436,1083 6441,1031 6449,976 6457,923 6467,867 6479,811 6491,755 6506,698 6523,643 6540,586 6559,531 6582,478 6604,426 6628,374 6656,327 6683,279 6714,235 6747,196 6781,156 6818,121 6857,93 6897,64 6939,40 6986,25 7032,9 7082,0 7135,0 7150,0 7166,1 7180,3Z"/>
	<path fill="rgb(0,146,0)" d="M7790,810C7802,866 7812,923 7819,976 7828,1031 7833,1082 7837,1132 7839,1173 7842,1228 7842,1269 7842,1269 7827,1269 7799,1269 7849,1092 7803,857 7771,733 7778,758 7784,785 7790,810Z"/>
	<path fill="rgb(0,146,0)" d="M7172,1C6991,-9 7023,158 7048,292 7049,299 7206,1019 7414,1269 7328,1269 7233,1269 7133,1269 6742,1269 6425,1269 6427,1269 6429,1184 6429,1178 6432,1132 6436,1083 6441,1031 6449,976 6457,923 6467,867 6479,811 6491,755 6506,698 6523,643 6540,586 6559,531 6582,478 6604,426 6628,374 6656,327 6683,279 6714,235 6747,196 6781,156 6818,121 6857,93 6897,64 6939,40 6986,25 7032,9 7082,0 7135,0 7148,0 7160,1 7172,1Z"/>
	<path fill="rgb(0,144,0)" d="M7790,811C7802,866 7812,923 7820,977 7828,1031 7833,1083 7837,1132 7839,1173 7842,1228 7842,1269 7842,1269 7830,1269 7807,1269 7844,1139 7817,928 7781,773 7784,786 7787,798 7790,811Z"/>
	<path fill="rgb(0,144,0)" d="M7163,1C6986,-7 7016,158 7040,292 7042,299 7205,1041 7395,1269 7313,1269 7225,1269 7133,1269 6742,1269 6425,1269 6427,1269 6429,1184 6429,1178 6432,1132 6436,1083 6441,1031 6449,976 6457,923 6467,867 6479,811 6491,755 6506,698 6523,643 6540,586 6559,531 6582,478 6604,426 6628,374 6656,327 6683,279 6714,235 6747,196 6781,156 6818,121 6857,93 6897,64 6939,40 6986,25 7032,9 7082,0 7135,0 7144,0 7153,1 7163,1Z"/>
	<path fill="rgb(0,141,0)" d="M7819,976C7828,1031 7833,1082 7837,1132 7839,1173 7842,1227 7842,1269 7842,1269 7832,1269 7813,1269 7823,1218 7848,1079 7790,814 7802,869 7812,923 7819,976Z"/>
	<path fill="rgb(0,141,0)" d="M7154,1C7002,-3 7004,124 7027,261 7040,335 7209,1075 7375,1269 7299,1269 7218,1269 7133,1269 6742,1269 6425,1269 6427,1269 6429,1184 6429,1178 6432,1132 6436,1083 6441,1031 6449,976 6457,923 6467,867 6479,811 6491,755 6506,698 6523,643 6540,586 6559,531 6582,478 6604,426 6628,374 6656,327 6683,279 6714,235 6747,196 6781,156 6818,121 6857,93 6897,64 6939,40 6986,25 7032,9 7082,0 7135,0 7141,0 7148,0 7154,1Z"/>
	<path fill="rgb(0,139,0)" d="M7820,977C7828,1031 7834,1083 7838,1132 7840,1174 7843,1228 7843,1269 7843,1269 7834,1269 7819,1269 7827,1218 7847,1096 7800,857 7808,897 7815,938 7820,977Z"/>
	<path fill="rgb(0,139,0)" d="M7144,0C7004,0 6994,104 7024,283 7025,291 7167,1006 7356,1269 7286,1269 7211,1269 7133,1269 6742,1269 6425,1269 6427,1269 6429,1184 6429,1178 6432,1132 6436,1083 6441,1031 6449,976 6457,923 6467,867 6479,811 6491,755 6506,698 6523,643 6540,586 6559,531 6582,478 6604,426 6628,374 6656,327 6683,279 6714,235 6747,196 6781,156 6818,121 6857,93 6897,64 6939,40 6986,25 7032,9 7082,0 7135,0 7139,0 7141,0 7144,0Z"/>
	<path fill="rgb(0,135,0)" d="M7820,976C7828,1031 7834,1083 7837,1132 7840,1173 7842,1228 7843,1269 7843,1269 7836,1269 7823,1269 7830,1228 7847,1119 7807,899 7812,925 7816,951 7820,976Z"/>
	<path fill="rgb(0,135,0)" d="M7136,0C7023,11 6979,55 7018,291 7018,298 7147,992 7339,1269 7274,1269 7204,1269 7133,1269 6742,1269 6425,1269 6427,1269 6429,1184 6429,1178 6432,1132 6436,1083 6441,1031 6449,976 6457,923 6467,867 6479,811 6491,755 6506,698 6523,643 6540,586 6559,531 6582,478 6604,426 6628,374 6656,327 6683,279 6714,235 6747,196 6781,156 6818,121 6857,93 6897,64 6939,40 6986,25 7032,9 7082,0 7135,0L7136,0Z"/>
	<path fill="rgb(0,133,0)" d="M7820,976C7828,1030 7834,1082 7838,1131 7840,1173 7843,1227 7843,1269 7843,1269 7838,1269 7828,1269 7844,1166 7830,1034 7815,942 7817,954 7819,965 7820,976Z"/>
	<path fill="rgb(0,131,0)" d="M7837,1132C7840,1173 7842,1228 7843,1269 7843,1269 7839,1269 7831,1269 7836,1210 7842,1136 7821,985 7828,1036 7834,1085 7837,1132Z"/>
	<path fill="rgb(0,128,0)" d="M7837,1131C7840,1172 7842,1227 7843,1268 7843,1268 7840,1268 7833,1268 7838,1210 7842,1151 7826,1027 7831,1063 7835,1098 7837,1131Z"/>
	<path fill="rgb(0,126,0)" d="M7837,1131C7840,1173 7842,1227 7843,1269 7843,1269 7841,1269 7837,1269 7839,1233 7842,1173 7831,1068 7833,1090 7836,1111 7837,1131Z"/>
	<path fill="rgb(0,123,0)" d="M7837,1132C7839,1173 7842,1228 7843,1269 7843,1269 7841,1269 7839,1269 7842,1212 7839,1150 7835,1109 7835,1117 7836,1124 7837,1132Z"/>
	<path fill="rgb(0,120,0)" d="M7842,1269C7842,1269 7841,1269 7839,1269 7841,1197 7841,1195 7838,1148 7840,1184 7870,1244 7842,1269Z"/>
	<path fill="rgb(0,118,0)" d="M7842,1269L7841,1269C7841,1208 7841,1208 7840,1184 7841,1210 7862,1250 7842,1269Z"/>
	<path fill="rgb(0,115,0)" d="M7841,1269L7841,1269C7841,1254 7841,1234 7841,1219 7841,1234 7855,1258 7841,1269Z"/>
	<path fill="rgb(0,113,0)" d="M7842,1269C7842,1264 7842,1255 7842,1250 7842,1255 7849,1265 7842,1269Z"/>
	<path fill="rgb(0,133,0)" d="M7133,1269C6742,1269 6425,1269 6427,1269 6429,1184 6429,1178 6432,1132 6436,1083 6441,1031 6449,976 6457,923 6467,867 6479,811 6491,755 6506,698 6523,643 6540,586 6559,531 6582,478 6604,426 6628,374 6656,327 6683,279 6714,235 6747,196 6781,156 6818,121 6857,93 6897,64 6939,40 6986,25 7029,10 7077,1 7127,0 7008,5 6977,81 7010,291 7010,298 7147,1026 7321,1269 7261,1269 7198,1269 7133,1269Z"/>
	<path fill="rgb(0,165,0)" d="M7284,25C7330,40 7372,63 7412,92 7452,121 7488,156 7522,196 7556,235 7586,279 7614,327 7641,374 7666,425 7688,478 7689,481 7691,484 7692,486 7836,837 7851,1345 7597,1258 7435,1204 7266,829 7264,824 7257,804 7244,776 7238,754L7078,186C7071,152 7054,50 7123,17 7136,11 7173,-3 7235,11 7252,14 7268,19 7284,25Z"/>
	<path fill="rgb(0,131,0)" d="M7133,1269C6742,1269 6425,1269 6427,1269 6429,1184 6429,1179 6432,1132 6436,1083 6441,1031 6449,977 6457,923 6467,867 6479,811 6491,755 6506,699 6523,643 6540,587 6559,531 6582,478 6604,426 6628,374 6656,327 6683,279 6714,236 6747,196 6781,156 6818,122 6857,93 6897,64 6940,41 6986,26 7027,11 7072,2 7118,1 6773,20 7243,1175 7304,1269 7249,1269 7191,1269 7133,1269Z"/>
	<path fill="rgb(0,128,0)" d="M7133,1269C6742,1269 6425,1269 6427,1269 6429,1184 6429,1179 6432,1132 6436,1083 6441,1031 6449,977 6457,923 6467,867 6479,811 6491,755 6506,699 6523,643 6540,587 6559,531 6582,478 6604,426 6628,374 6656,327 6683,279 6714,236 6747,196 6781,156 6818,122 6857,93 6897,64 6940,41 6986,26 7025,12 7066,3 7110,1 6767,26 7228,1176 7287,1269 7237,1269 7186,1269 7133,1269Z"/>
	<path fill="rgb(0,167,0)" d="M7284,26C7330,41 7373,64 7412,93 7452,122 7488,156 7522,196 7556,236 7586,280 7614,327 7637,369 7659,411 7679,457 7831,808 7849,1327 7597,1238 7411,1172 7266,796 7197,615 7190,595 7182,567 7177,546L7078,141C7072,79 7089,39 7130,18 7137,14 7175,-3 7245,14 7258,17 7271,21 7284,26Z"/>
	<path fill="rgb(0,126,0)" d="M7133,1269C6742,1269 6425,1269 6427,1269 6429,1184 6429,1179 6432,1132 6436,1083 6441,1031 6449,977 6457,924 6467,867 6479,811 6491,755 6506,699 6523,643 6540,587 6559,531 6582,478 6604,426 6628,375 6656,327 6683,280 6714,236 6747,196 6781,156 6818,122 6857,93 6897,64 6940,41 6986,26 7022,13 7061,5 7101,2 6768,34 7212,1180 7270,1269 7226,1269 7180,1269 7133,1269Z"/>
	<path fill="rgb(0,123,0)" d="M7133,1269C6742,1269 6425,1269 6427,1269 6429,1184 6429,1178 6432,1132 6436,1082 6441,1031 6449,976 6457,923 6467,866 6479,811 6491,755 6506,698 6523,642 6540,586 6559,531 6582,478 6604,425 6628,374 6656,327 6683,279 6714,235 6747,196 6781,156 6818,121 6857,93 6897,63 6940,40 6986,25 7019,13 7055,5 7093,2 6761,37 7196,1177 7254,1269 7214,1269 7174,1269 7133,1269Z"/>
	<path fill="rgb(0,170,0)" d="M7284,26C7330,41 7373,64 7412,93 7452,122 7489,157 7523,197 7556,236 7587,280 7614,328 7633,359 7650,393 7665,427 7825,773 7845,1312 7597,1216 7503,1179 7306,906 7249,756 7240,735 7234,706 7229,685L7092,187C7083,125 7071,49 7137,18 7144,15 7184,-2 7254,16 7265,19 7274,22 7284,26Z"/>
	<path fill="rgb(0,120,0)" d="M7133,1268C6742,1268 6425,1268 6427,1268 6429,1183 6429,1178 6432,1132 6436,1082 6441,1031 6449,976 6457,923 6467,866 6479,811 6491,754 6506,698 6523,642 6540,586 6559,531 6582,478 6604,425 6628,374 6656,327 6683,279 6714,235 6747,196 6781,156 6818,121 6857,93 6897,63 6940,40 6986,25 7017,14 7050,7 7085,3 6758,45 7177,1163 7237,1268 7203,1268 7169,1268 7133,1268Z"/>
	<path fill="rgb(0,118,0)" d="M7133,1268C6742,1268 6425,1268 6427,1268 6429,1183 6429,1178 6432,1131 6436,1082 6441,1031 6449,976 6457,923 6467,866 6479,811 6491,754 6506,698 6523,642 6540,586 6559,531 6582,478 6604,425 6628,374 6656,327 6683,279 6714,235 6747,196 6781,156 6818,121 6857,92 6897,63 6940,40 6986,25 7015,15 7044,8 7076,4 6762,52 7165,1169 7221,1268 7192,1268 7163,1268 7133,1268Z"/>
	<path fill="rgb(0,172,0)" d="M7284,26C7330,41 7373,64 7412,93 7452,122 7488,156 7522,196 7556,236 7586,280 7614,327 7626,350 7640,374 7652,399 7830,761 7826,1287 7597,1190 7549,1170 7470,1090 7360,951 7338,924 7264,786 7254,757 7246,736 7237,707 7231,684L7092,141C7087,106 7087,44 7145,18 7155,13 7195,0 7264,19 7271,21 7277,23 7284,26Z"/>
	<path fill="rgb(0,115,0)" d="M7133,1268C6742,1268 6425,1268 6427,1268 6429,1183 6429,1178 6432,1131 6436,1082 6441,1031 6449,976 6457,923 6467,866 6479,811 6491,754 6506,698 6523,642 6540,586 6559,531 6582,478 6604,425 6628,374 6656,327 6683,279 6714,235 6747,196 6781,156 6818,121 6857,92 6897,63 6940,40 6986,25 7012,15 7040,9 7068,5 6758,59 7150,1169 7205,1268 7181,1268 7157,1268 7133,1268Z"/>
	<path fill="rgb(0,113,0)" d="M7133,1268C6742,1268 6425,1268 6427,1268 6429,1183 6429,1178 6432,1131 6436,1082 6441,1031 6449,976 6457,923 6467,866 6479,810 6491,754 6506,698 6523,642 6540,586 6559,531 6582,478 6604,425 6628,374 6656,327 6683,279 6714,235 6747,196 6781,156 6818,121 6857,92 6897,63 6940,40 6986,25 7010,16 7034,11 7060,6 6764,64 7113,1134 7188,1268 7170,1268 7152,1268 7133,1268Z"/>
	<path fill="rgb(0,175,0)" d="M7284,25C7330,40 7373,63 7412,92 7452,121 7488,156 7522,196 7556,235 7586,279 7614,327 7622,341 7630,355 7638,370 7821,722 7826,1263 7595,1164 7547,1142 7310,891 7257,754 7248,734 7239,706 7233,684L7098,140C7090,78 7107,37 7151,18 7158,14 7201,-2 7277,22 7278,22 7281,24 7284,25Z"/>
	<path fill="rgb(0,109,0)" d="M7133,1269C6742,1269 6425,1269 6427,1269 6429,1184 6429,1179 6432,1132 6436,1083 6441,1031 6449,977 6457,923 6467,867 6479,811 6491,755 6506,699 6523,643 6540,587 6559,531 6582,478 6604,426 6628,374 6656,327 6683,279 6714,236 6747,196 6781,156 6818,122 6857,93 6897,64 6940,41 6986,26 7007,18 7029,12 7051,8 6761,72 7101,1145 7173,1269 7159,1269 7146,1269 7133,1269Z"/>
	<path fill="rgb(0,107,0)" d="M7133,1269C6742,1269 6425,1269 6427,1269 6429,1184 6429,1178 6432,1132 6436,1082 6441,1031 6449,976 6457,923 6467,866 6479,811 6491,755 6506,698 6523,642 6540,586 6559,531 6582,478 6604,425 6628,374 6656,327 6683,279 6714,235 6747,196 6781,156 6818,121 6857,93 6897,63 6940,40 6986,25 7005,18 7023,13 7043,9 6759,72 7084,1131 7156,1269 7148,1269 7141,1269 7133,1269Z"/>
	<path fill="rgb(0,178,0)" d="M7413,93C7453,122 7489,157 7523,197 7557,236 7587,280 7615,328 7618,333 7621,338 7624,344 7828,712 7808,1237 7595,1136 7576,1128 7327,921 7263,755 7255,735 7243,707 7237,685L7106,141C7097,76 7115,35 7161,18 7176,13 7218,2 7289,26 7333,43 7375,65 7413,93Z"/>
	<path fill="rgb(0,105,0)" d="M7133,1269C6742,1269 6425,1269 6427,1269 6429,1184 6429,1179 6432,1132 6436,1083 6441,1031 6449,977 6457,923 6467,867 6479,811 6491,755 6506,699 6523,643 6540,587 6559,531 6582,478 6604,426 6628,374 6656,327 6683,279 6714,235 6747,196 6781,156 6818,122 6857,93 6897,64 6940,41 6986,25 7002,19 7018,15 7036,11 6751,81 7067,1127 7139,1269 7137,1269 7135,1269 7133,1269Z"/>
	<path fill="rgb(0,102,0)" d="M6427,1269C6441,1255 6427,1223 6428,1203 6429,1182 6430,1154 6432,1132 6436,1083 6441,1031 6449,977 6457,924 6467,867 6479,811 6491,755 6506,699 6523,643 6540,587 6559,531 6582,478 6604,426 6628,374 6656,327 6683,280 6714,236 6747,196 6781,156 6818,122 6857,93 6897,64 6940,41 6986,26 6999,20 7012,16 7028,13 6749,85 7053,1128 7123,1269 6736,1269 6425,1269 6427,1269Z"/>
	<path fill="rgb(0,180,0)" d="M7412,92C7452,121 7488,156 7522,196 7553,232 7582,273 7608,317 7794,630 7814,1127 7641,1120 7637,1120 7608,1118 7577,1095 7493,1033 7359,909 7358,907 7355,905 7297,819 7267,754 7221,657 7116,164 7116,159 7106,103 7111,62 7134,38 7142,29 7188,-11 7299,31 7340,46 7377,67 7412,92Z"/>
	<path fill="rgb(0,99,0)" d="M6427,1269C6441,1255 6427,1223 6428,1203 6429,1182 6430,1153 6432,1132 6436,1083 6441,1031 6449,977 6457,923 6467,867 6479,811 6491,755 6506,699 6523,643 6540,587 6559,531 6582,478 6604,426 6628,374 6656,327 6684,279 6714,236 6747,196 6781,156 6818,122 6857,93 6897,64 6940,41 6986,26 6997,21 7008,18 7019,15 6739,94 7038,1135 7107,1269 6727,1269 6425,1269 6427,1269Z"/>
	<path fill="rgb(0,96,0)" d="M6427,1268C6441,1255 6427,1222 6428,1203 6429,1182 6430,1153 6432,1131 6436,1082 6441,1031 6449,976 6457,923 6467,866 6479,811 6491,754 6506,698 6523,642 6540,586 6559,531 6582,478 6604,425 6628,374 6656,327 6684,279 6714,235 6747,196 6781,156 6818,121 6857,92 6897,63 6940,40 6986,25 6994,22 7003,19 7011,17 6736,101 7022,1125 7090,1268 6719,1268 6425,1268 6427,1268Z"/>
	<path fill="rgb(0,183,0)" d="M7413,92C7453,121 7489,156 7523,196 7548,225 7571,257 7592,291 7801,619 7801,1096 7639,1089 7624,1089 7603,1083 7591,1075 7578,1066 7563,1053 7551,1043 7507,1011 7475,965 7423,943 7401,933 7377,910 7359,895 7358,894 7311,836 7272,754 7217,639 7121,144 7119,140 7119,137 7107,74 7141,38 7147,32 7193,-13 7312,34 7348,50 7381,68 7413,92Z"/>
	<path fill="rgb(0,95,0)" d="M6427,1268C6441,1255 6427,1222 6428,1203 6429,1182 6430,1153 6432,1131 6436,1082 6441,1031 6449,976 6457,923 6467,866 6479,810 6491,754 6506,698 6523,642 6540,586 6559,531 6582,478 6604,425 6628,374 6656,327 6684,279 6714,235 6747,196 6781,156 6818,121 6857,92 6897,63 6940,40 6986,25 6991,22 6997,21 7002,19 6745,103 6988,1085 7073,1268 6710,1268 6425,1268 6427,1268Z"/>
	<path fill="rgb(0,92,0)" d="M6427,1269C6441,1255 6427,1223 6428,1203 6429,1182 6430,1153 6432,1132 6436,1083 6441,1031 6449,977 6457,923 6467,867 6479,811 6491,755 6506,699 6523,643 6540,587 6559,531 6582,478 6604,426 6628,374 6656,327 6684,279 6714,235 6748,196 6781,156 6818,122 6857,93 6897,64 6940,41 6986,26 6989,24 6991,23 6994,22 6739,112 6972,1080 7056,1269 6701,1269 6425,1269 6427,1269Z"/>
	<path fill="rgb(0,184,0)" d="M7412,93C7452,121 7488,156 7522,196 7541,218 7558,240 7575,264 7785,575 7797,1064 7636,1058 7603,1057 7588,1044 7535,999 7523,990 7512,973 7500,963 7493,956 7485,948 7476,942 7461,934 7434,934 7418,925 7405,919 7392,900 7378,895 7335,876 7292,788 7276,754 7219,634 7192,485 7190,478 7187,458 7182,432 7180,413 7171,320 7133,233 7126,140 7123,112 7119,65 7148,38 7173,14 7235,0 7325,41 7356,55 7385,72 7412,93Z"/>
	<path fill="rgb(0,88,0)" d="M6427,1268C6441,1255 6427,1222 6428,1203 6429,1182 6430,1153 6432,1131 6436,1082 6441,1031 6449,976 6457,923 6467,866 6479,811 6491,754 6506,698 6523,642 6540,586 6559,531 6582,478 6604,425 6628,374 6656,327 6684,279 6714,235 6748,196 6781,156 6818,121 6857,92 6897,63 6939,40 6984,25 6733,119 6959,1089 7040,1268 6693,1268 6425,1268 6427,1268Z"/>
	<path fill="rgb(0,87,0)" d="M6427,1269C6441,1256 6427,1223 6428,1204 6429,1182 6430,1154 6432,1132 6436,1083 6441,1032 6449,977 6457,924 6467,867 6479,811 6491,755 6506,699 6523,643 6540,587 6559,532 6582,478 6604,426 6628,375 6656,327 6684,280 6714,236 6748,197 6781,157 6818,122 6857,93 6894,66 6933,44 6976,29 6727,129 6944,1092 7023,1269 6684,1269 6426,1269 6427,1269Z"/>
	<path fill="rgb(0,187,0)" d="M7413,93C7453,122 7489,157 7523,197 7535,210 7546,224 7557,240 7776,539 7797,1033 7634,1026 7620,1026 7599,1019 7587,1010 7570,998 7548,980 7532,965 7515,951 7492,931 7475,915 7461,904 7434,915 7418,911 7411,909 7405,898 7398,896 7348,875 7337,870 7282,755 7227,643 7203,524 7195,479 7191,459 7186,434 7184,414 7181,378 7180,328 7173,292 7163,240 7137,194 7133,141 7131,104 7128,66 7156,39 7177,18 7239,-3 7344,50 7367,62 7391,77 7413,93Z"/>
	<path fill="rgb(0,83,0)" d="M6427,1268C6441,1255 6427,1222 6428,1203 6429,1182 6430,1153 6432,1131 6436,1082 6441,1031 6449,976 6457,923 6467,866 6479,811 6491,754 6506,698 6523,642 6540,586 6559,531 6582,478 6604,425 6628,374 6656,327 6684,279 6714,235 6748,196 6781,156 6818,121 6857,92 6892,67 6928,46 6967,31 6723,137 6928,1085 7006,1268 6675,1268 6426,1268 6427,1268Z"/>
	<path fill="rgb(0,82,0)" d="M6427,1269C6441,1255 6427,1223 6428,1203 6429,1182 6430,1153 6432,1132 6436,1083 6441,1031 6449,977 6457,923 6467,867 6479,811 6491,755 6506,699 6523,643 6540,587 6559,531 6582,478 6604,426 6628,374 6656,327 6684,279 6714,235 6748,196 6781,156 6818,122 6857,93 6889,69 6923,50 6959,35 6717,143 6903,1057 6988,1269 6666,1269 6426,1269 6427,1269Z"/>
	<path fill="rgb(0,190,0)" d="M7412,93C7452,121 7489,156 7523,196 7527,200 7531,205 7534,209 7779,515 7778,998 7631,992 7616,991 7597,982 7583,976 7539,956 7516,909 7472,889 7459,882 7440,892 7426,893 7404,896 7356,869 7355,869 7355,869 7330,844 7253,687 7243,666 7236,637 7231,614 7227,594 7223,566 7218,545 7215,525 7202,499 7198,478 7180,384 7182,286 7152,193 7148,177 7142,156 7140,140 7131,71 7152,49 7162,39 7181,19 7248,-3 7360,59 7378,68 7396,80 7412,93Z"/>
	<path fill="rgb(0,79,0)" d="M6427,1269C6441,1255 6427,1223 6428,1203 6429,1182 6430,1153 6432,1132 6436,1083 6441,1031 6449,977 6457,923 6467,867 6479,811 6491,755 6506,698 6523,643 6540,586 6559,531 6582,478 6604,426 6628,374 6656,327 6684,279 6714,235 6748,196 6781,156 6818,122 6857,93 6886,71 6918,53 6950,39 6710,154 6889,1068 6970,1269 6658,1269 6426,1269 6427,1269Z"/>
	<path fill="rgb(0,193,0)" d="M7413,93C7447,118 7480,148 7509,180 7764,466 7780,965 7627,959 7559,956 7538,872 7470,867 7456,866 7439,878 7426,883 7398,891 7356,862 7356,861 7345,852 7265,713 7255,686 7248,665 7237,637 7233,615 7229,595 7224,567 7221,546 7220,541 7219,534 7218,529 7215,514 7205,494 7202,479 7185,382 7188,282 7158,187 7154,173 7149,155 7148,141 7142,104 7142,64 7171,39 7193,18 7267,1 7384,74 7394,79 7404,86 7413,93Z"/>
	<path fill="rgb(0,77,0)" d="M6427,1269C6441,1255 6427,1223 6428,1203 6429,1182 6430,1154 6432,1132 6436,1083 6441,1031 6449,977 6457,924 6467,867 6479,811 6491,755 6506,699 6523,643 6540,587 6559,531 6582,478 6604,426 6628,374 6656,327 6684,280 6714,236 6748,196 6781,156 6818,122 6857,93 6883,74 6911,57 6939,44 6709,162 6866,1057 6952,1269 6648,1269 6426,1269 6427,1269Z"/>
	<path fill="rgb(0,73,0)" d="M6427,1269C6441,1255 6427,1223 6428,1203 6429,1182 6430,1153 6432,1132 6436,1082 6441,1031 6449,976 6457,923 6467,866 6479,811 6491,754 6506,698 6523,642 6540,586 6559,531 6582,478 6604,425 6628,374 6656,327 6684,279 6714,235 6748,196 6781,156 6818,121 6857,93 6879,75 6904,61 6928,49 6707,172 6840,1024 6933,1269 6639,1269 6426,1269 6427,1269Z"/>
	<path fill="rgb(0,196,0)" d="M7450,121C7766,407 7764,929 7623,924 7560,921 7538,837 7468,845 7450,847 7433,874 7415,876 7317,883 7238,626 7235,615L7195,413C7190,377 7196,328 7193,292 7190,260 7176,218 7165,186 7141,109 7152,71 7166,53 7207,-2 7312,17 7421,99 7430,106 7440,113 7450,121Z"/>
	<path fill="rgb(0,70,0)" d="M6427,1269C6441,1255 6427,1223 6428,1203 6429,1182 6430,1153 6432,1132 6436,1082 6441,1031 6449,976 6457,923 6467,867 6479,811 6491,755 6506,698 6523,642 6540,586 6559,531 6582,478 6604,425 6628,374 6656,327 6684,279 6714,235 6748,196 6781,156 6818,121 6857,93 6877,78 6897,65 6918,54 6697,184 6821,1011 6914,1269 6630,1269 6426,1269 6427,1269Z"/>
	<path fill="rgb(0,197,0)" d="M7514,186C7746,451 7757,893 7620,889 7574,887 7562,831 7518,826 7468,820 7468,820 7425,857 7422,860 7419,865 7414,865 7319,881 7237,617 7237,614L7198,413C7194,377 7203,328 7199,292 7197,259 7184,217 7174,186 7150,113 7160,72 7168,60 7231,-28 7402,56 7514,186Z"/>
	<path fill="rgb(0,69,0)" d="M6427,1269C6441,1255 6427,1223 6428,1203 6429,1182 6430,1153 6432,1132 6436,1083 6441,1031 6449,976 6457,923 6467,867 6479,811 6491,755 6506,698 6523,643 6540,586 6559,531 6582,478 6604,426 6628,374 6656,327 6684,279 6714,235 6748,196 6781,156 6818,121 6857,93 6874,80 6890,70 6908,60 6684,199 6806,1042 6895,1269 6621,1269 6426,1269 6427,1269Z"/>
	<path fill="rgb(0,66,0)" d="M6427,1269C6441,1255 6427,1223 6428,1203 6429,1182 6430,1153 6432,1132 6436,1083 6441,1031 6449,977 6457,923 6467,867 6479,811 6491,755 6506,698 6523,643 6540,586 6559,531 6582,478 6604,426 6628,374 6656,327 6684,279 6714,235 6748,196 6781,156 6818,121 6857,93 6870,83 6883,74 6897,66 6679,209 6787,1029 6872,1269 6610,1269 6426,1269 6427,1269Z"/>
	<path fill="rgb(0,201,0)" d="M7513,186C7731,439 7742,858 7614,853 7569,852 7553,801 7513,793 7460,782 7454,848 7413,856 7357,866 7323,802 7286,734 7244,654 7238,563 7213,478 7207,459 7203,433 7201,413 7197,373 7207,332 7203,292 7197,215 7132,148 7172,65 7210,-14 7375,26 7513,186Z"/>
	<path fill="rgb(0,64,0)" d="M6427,1269C6441,1255 6427,1223 6428,1203 6429,1182 6430,1153 6432,1132 6436,1082 6441,1031 6449,976 6457,923 6467,866 6479,811 6491,754 6506,698 6523,642 6540,586 6559,531 6582,478 6604,425 6628,374 6656,327 6684,279 6714,235 6748,196 6781,156 6818,121 6857,93 6865,86 6874,81 6882,75 6674,223 6758,987 6850,1269 6600,1269 6426,1269 6427,1269Z"/>
	<path fill="rgb(0,202,0)" d="M7513,186C7723,425 7733,822 7608,819 7565,817 7552,762 7508,759 7447,757 7461,836 7412,846 7317,865 7240,617 7240,615 7228,575 7219,520 7215,478 7213,459 7207,432 7205,413 7201,355 7209,295 7205,236 7201,179 7151,128 7179,65 7211,-3 7364,17 7513,186Z"/>
	<path fill="rgb(0,61,0)" d="M6427,1269C6441,1255 6427,1223 6428,1203 6429,1182 6430,1153 6432,1132 6436,1083 6441,1031 6449,977 6457,923 6467,867 6479,811 6491,755 6506,698 6523,643 6540,586 6559,531 6582,478 6604,426 6628,374 6656,327 6684,279 6714,235 6748,196 6781,156 6818,121 6857,93 6860,90 6864,88 6867,85 6665,242 6735,1014 6827,1269 6589,1269 6426,1269 6427,1269Z"/>
	<path fill="rgb(0,206,0)" d="M7503,176C7708,398 7725,788 7604,784 7604,784 7574,780 7543,755 7532,747 7518,725 7505,728L7429,822C7425,827 7419,836 7412,837 7394,841 7368,832 7353,823 7352,823 7294,763 7242,615 7219,550 7221,481 7209,414 7199,355 7219,296 7213,237 7209,190 7178,148 7180,100 7182,52 7214,40 7224,36 7282,20 7386,48 7503,176Z"/>
	<path fill="rgb(0,57,0)" d="M6427,1269C6441,1255 6427,1223 6428,1203 6429,1182 6430,1153 6432,1132 6436,1082 6441,1031 6449,976 6457,923 6467,866 6479,811 6491,755 6506,698 6523,642 6540,586 6559,531 6582,478 6604,425 6629,374 6656,327 6684,279 6714,235 6748,196 6780,158 6815,124 6853,95 6663,244 6705,955 6798,1269 6576,1269 6426,1269 6427,1269Z"/>
	<path fill="rgb(0,209,0)" d="M7511,186C7705,415 7714,753 7597,749 7576,749 7553,733 7511,704 7507,701 7503,695 7499,696 7499,696 7495,700 7426,805 7423,811 7419,822 7412,825 7411,826 7355,819 7352,817 7352,817 7254,734 7218,478 7215,459 7212,433 7212,413 7206,354 7226,296 7221,237 7218,190 7185,148 7187,100 7190,50 7224,39 7238,36 7314,22 7423,82 7511,186Z"/>
	<path fill="rgb(0,211,0)" d="M7510,186C7691,400 7700,718 7591,714 7576,714 7576,714 7493,664 7486,716 7410,819 7409,820 7394,826 7367,821 7351,812 7351,812 7254,730 7218,478 7213,440 7209,389 7211,351 7213,316 7225,271 7228,236 7229,221 7217,200 7213,186 7193,123 7179,59 7240,39 7288,24 7403,60 7510,186Z"/>
	<path fill="rgb(0,56,0)" d="M6427,1268C6441,1255 6427,1222 6428,1203 6429,1182 6430,1153 6432,1131 6436,1082 6441,1031 6449,976 6457,923 6467,866 6479,810 6491,754 6506,698 6523,642 6540,586 6559,531 6582,478 6604,425 6629,374 6656,327 6684,279 6714,235 6748,196 6774,164 6802,137 6832,112 6633,293 6685,1025 6770,1268 6563,1268 6426,1268 6427,1268Z"/>
	<path fill="rgb(0,213,2)" d="M7509,186C7682,393 7689,683 7585,681 7570,680 7560,675 7489,634 7472,748 7410,813 7410,813 7394,820 7367,816 7352,807 7351,806 7253,718 7220,478 7214,440 7211,389 7213,351 7216,316 7232,272 7236,238 7243,173 7158,72 7246,43 7289,29 7399,55 7509,186Z"/>
	<path fill="rgb(0,53,0)" d="M6427,1268C6441,1255 6427,1222 6428,1203 6429,1182 6430,1153 6432,1131 6436,1082 6441,1031 6449,976 6457,923 6467,866 6479,810 6491,754 6506,698 6523,642 6540,586 6559,531 6582,477 6604,425 6629,374 6656,326 6684,279 6714,235 6748,195 6766,173 6787,152 6807,133 6655,281 6619,822 6730,1268 6546,1268 6426,1268 6427,1268Z"/>
	<path fill="rgb(0,216,5)" d="M7507,187C7655,356 7682,651 7577,648 7569,648 7569,648 7483,605 7484,700 7417,804 7408,808 7393,816 7366,812 7351,803 7350,802 7256,684 7231,546 7218,475 7212,409 7215,352 7217,311 7240,276 7246,237 7247,222 7233,201 7229,187 7208,122 7194,58 7261,45 7266,44 7368,26 7507,187Z"/>
	<path fill="rgb(0,219,6)" d="M7506,187C7656,369 7661,617 7571,615 7560,615 7547,609 7477,574 7478,627 7478,630 7462,685 7460,691 7453,696 7451,703 7437,732 7437,788 7408,802 7393,809 7366,806 7351,798 7350,798 7253,665 7232,546 7222,488 7212,420 7217,352 7218,334 7228,311 7232,294 7237,276 7252,255 7254,237 7256,221 7243,201 7238,187 7220,128 7199,62 7267,50 7328,36 7430,96 7506,187Z"/>
	<path fill="rgb(0,221,9)" d="M7503,186C7644,359 7647,584 7562,583 7553,583 7519,566 7471,543 7471,565 7477,594 7472,614 7467,636 7458,664 7451,684 7451,685 7449,687 7449,688 7436,720 7438,779 7408,795 7392,802 7365,801 7350,792 7349,792 7260,712 7222,478 7207,386 7217,358 7236,296 7242,275 7260,260 7263,238 7267,207 7237,170 7232,140 7229,121 7231,96 7236,78 7238,68 7242,59 7271,53 7331,40 7430,97 7503,186Z"/>
	<path fill="rgb(0,223,13)" d="M7501,186C7637,352 7637,552 7555,551 7546,551 7535,545 7464,511 7467,542 7473,584 7467,615 7466,616 7434,774 7408,788 7392,797 7366,795 7351,787 7349,787 7254,695 7224,478 7211,381 7217,364 7240,298 7247,275 7270,261 7272,236 7274,221 7262,200 7256,186 7237,129 7218,70 7278,57 7335,44 7431,99 7501,186Z"/>
	<path fill="rgb(0,227,15)" d="M7498,187C7616,332 7629,522 7546,520 7536,520 7524,514 7456,480 7460,521 7468,575 7461,615 7461,616 7432,770 7406,783 7391,791 7364,791 7350,783 7348,783 7248,675 7225,479 7221,441 7213,388 7222,352 7233,308 7271,279 7285,237 7289,222 7271,201 7266,187 7251,145 7225,75 7282,62 7345,47 7437,113 7498,187Z"/>
	<path fill="rgb(0,228,18)" d="M7529,236C7589,335 7616,490 7537,488 7523,488 7513,482 7448,444 7481,697 7407,776 7406,776 7391,784 7364,785 7349,777 7348,777 7243,654 7226,478 7222,440 7214,387 7224,351 7229,335 7231,310 7243,299L7296,236C7302,221 7282,200 7275,186 7235,85 7268,64 7302,64 7374,64 7470,137 7529,236Z"/>
	<path fill="rgb(0,232,19)" d="M7525,237C7571,312 7604,459 7528,458 7525,458 7500,457 7439,411 7456,540 7456,540 7450,615 7449,623 7444,633 7441,640 7437,652 7440,671 7440,685 7439,696 7415,765 7406,770 7390,779 7363,781 7348,773 7348,773 7242,684 7222,414 7219,380 7215,319 7245,300 7249,298 7255,296 7258,292 7267,284 7270,267 7278,258 7286,250 7306,248 7308,237 7313,221 7292,201 7286,187 7238,79 7292,71 7310,71 7379,71 7464,136 7525,237Z"/>
	<path fill="rgb(2,234,23)" d="M7498,201C7571,310 7582,428 7518,427 7499,427 7498,426 7429,376 7434,432 7454,488 7451,546 7448,577 7427,752 7405,763 7391,773 7364,775 7349,767 7348,767 7254,672 7228,478 7223,440 7220,388 7228,351 7232,336 7239,317 7246,304 7254,290 7268,274 7281,265 7289,258 7307,261 7316,254 7320,250 7323,242 7323,236 7321,187 7262,156 7279,100 7295,54 7414,77 7498,201Z"/>
	<path fill="rgb(5,237,25)" d="M7514,237C7554,310 7548,371 7535,385 7520,401 7520,401 7475,384 7472,383 7469,383 7467,381 7452,369 7437,338 7417,341 7396,345 7421,393 7425,413 7480,654 7406,755 7406,755 7392,766 7364,770 7348,763 7347,763 7254,665 7229,478 7224,440 7221,388 7230,352 7233,338 7239,319 7247,307 7254,295 7269,279 7282,272 7292,266 7312,281 7321,275 7331,268 7336,250 7336,239 7335,221 7317,202 7308,186 7275,120 7298,95 7298,95 7313,81 7367,74 7440,141 7467,165 7497,205 7514,237Z"/>
	<path fill="rgb(8,238,28)" d="M7507,236C7532,281 7536,341 7521,355 7490,389 7440,339 7391,292 7376,278 7307,177 7303,140 7303,139 7302,114 7314,99 7317,94 7336,93 7336,93 7383,93 7431,137 7433,140 7460,165 7490,204 7507,236Z"/>
	<path fill="rgb(8,238,28)" d="M7442,546C7442,548 7439,728 7404,752 7390,763 7363,764 7347,758 7347,757 7254,663 7230,478 7225,440 7222,388 7232,351 7235,338 7239,320 7247,310 7255,299 7270,285 7283,279 7321,265 7444,373 7442,546Z"/>
	<path fill="rgb(9,242,31)" d="M7437,545C7437,599 7432,727 7403,748 7389,757 7362,760 7347,753 7346,753 7254,655 7230,478 7210,316 7266,294 7285,287 7297,282 7317,289 7327,296 7345,309 7367,331 7378,351 7401,388 7437,451 7437,545Z"/>
	<path fill="rgb(13,245,32)" d="M7433,545C7432,721 7412,736 7403,743 7390,753 7363,757 7347,750 7347,749 7255,650 7232,478 7224,414 7220,306 7286,292 7333,283 7367,334 7376,351 7398,387 7434,463 7433,545Z"/>
	<path fill="rgb(16,247,35)" d="M7429,546C7429,549 7428,552 7427,556 7427,594 7431,647 7426,685 7423,703 7417,728 7402,739 7389,749 7362,754 7347,747 7294,724 7147,322 7286,295 7366,279 7429,459 7429,546Z"/>
	<path fill="rgb(30,255,50)" d="M7423,528C7445,699 7403,733 7402,734 7388,745 7362,750 7346,744 7345,743 7255,641 7234,478 7230,450 7215,310 7286,297 7322,290 7397,330 7423,528Z"/>
	<path fill="rgb(9,242,31)" d="M7497,236C7524,296 7509,318 7507,321 7503,327 7491,333 7483,333 7451,333 7391,271 7367,236 7311,154 7312,126 7330,109 7355,86 7451,133 7497,236Z"/>
	<path fill="rgb(50,255,68)" d="M7414,483C7426,568 7444,696 7402,730 7389,740 7362,747 7347,740 7346,740 7257,636 7236,478 7233,461 7216,312 7288,299 7349,288 7403,399 7414,483Z"/>
	<path fill="rgb(60,255,77)" d="M7423,546C7439,680 7402,725 7402,725 7388,735 7362,743 7346,736 7346,736 7257,631 7237,478 7228,418 7230,312 7288,301 7315,296 7398,331 7423,546Z"/>
	<path fill="rgb(68,255,84)" d="M7422,545C7437,674 7401,720 7401,720 7387,731 7361,739 7346,734 7345,734 7257,625 7238,478 7227,400 7238,311 7289,303 7310,299 7398,332 7422,545Z"/>
	<path fill="rgb(75,255,91)" d="M7421,546C7436,671 7401,717 7400,717 7387,728 7361,737 7346,731 7345,731 7257,622 7238,479 7226,384 7248,313 7289,306 7306,303 7398,334 7421,546Z"/>
	<path fill="rgb(81,255,96)" d="M7421,545C7434,664 7400,711 7399,712 7387,723 7362,733 7346,727 7345,727 7258,613 7240,478 7235,440 7238,387 7249,351 7255,329 7289,307 7290,307 7306,305 7399,338 7421,545Z"/>
	<path fill="rgb(87,255,102)" d="M7420,546C7432,661 7399,707 7399,708 7387,719 7362,729 7346,724 7344,724 7258,612 7241,478 7236,440 7240,388 7251,351 7254,340 7290,310 7290,310 7313,306 7399,355 7420,546Z"/>
	<path fill="rgb(92,255,106)" d="M7419,546C7429,658 7399,703 7399,703 7387,714 7362,727 7345,720 7344,720 7259,606 7242,478 7237,440 7242,387 7252,351 7257,335 7274,315 7291,312 7313,309 7399,356 7419,546Z"/>
	<path fill="rgb(96,255,110)" d="M7418,545C7428,654 7399,698 7399,699 7386,710 7360,723 7345,717 7344,717 7260,605 7243,478 7238,441 7243,389 7253,353 7254,351 7290,314 7291,314 7313,311 7399,361 7418,545Z"/>
	<path fill="rgb(101,255,115)" d="M7416,545C7427,652 7398,693 7398,693 7386,706 7361,719 7345,713 7344,713 7261,604 7244,478 7230,370 7268,320 7292,316 7304,315 7398,351 7416,545Z"/>
	<path fill="rgb(106,255,119)" d="M7415,546C7418,580 7423,630 7398,690 7391,705 7360,715 7344,710 7344,710 7261,600 7245,478 7230,363 7274,321 7292,319 7302,318 7343,338 7384,413 7404,449 7412,505 7415,546Z"/>
	<path fill="rgb(108,255,122)" d="M7414,546C7423,647 7398,685 7397,685 7386,698 7360,714 7344,708 7343,708 7263,599 7246,479 7230,357 7282,324 7292,322 7292,322 7332,322 7383,413 7403,449 7410,506 7414,546Z"/>
	<path fill="rgb(113,255,126)" d="M7413,545C7417,587 7422,649 7396,681 7395,682 7345,704 7344,704 7342,704 7263,597 7247,478 7229,346 7292,323 7293,323 7293,323 7336,329 7381,413 7401,449 7409,505 7413,545Z"/>
	<path fill="rgb(117,255,129)" d="M7412,546C7415,585 7420,647 7395,678 7385,691 7360,706 7343,701 7342,701 7264,596 7248,478 7230,346 7292,326 7293,326 7311,324 7398,376 7412,546Z"/>
	<path fill="rgb(121,255,132)" d="M7411,546C7414,584 7419,644 7395,673 7384,686 7360,703 7343,697 7343,697 7265,591 7249,478 7232,348 7293,328 7293,328 7311,327 7398,377 7411,546Z"/>
	<path fill="rgb(123,255,134)" d="M7409,545C7413,583 7418,640 7395,669 7384,683 7359,699 7342,694 7342,694 7265,589 7251,478 7246,448 7247,405 7256,377 7261,359 7276,332 7294,330 7311,328 7397,381 7409,545Z"/>
	<path fill="rgb(13,245,32)" d="M7486,237C7491,251 7496,273 7490,286 7486,294 7476,300 7468,300 7456,300 7407,268 7385,237 7359,201 7320,147 7343,126 7366,106 7440,133 7486,237Z"/>
	<path fill="rgb(127,255,139)" d="M7408,546C7411,581 7417,637 7394,665 7383,679 7358,696 7342,691 7341,691 7266,587 7250,478 7247,449 7247,408 7256,379 7261,363 7275,334 7294,332 7294,332 7338,344 7375,413 7395,450 7405,504 7408,546Z"/>
	<path fill="rgb(131,255,142)" d="M7407,546C7410,581 7416,635 7394,662 7392,664 7343,689 7342,688 7341,688 7267,586 7253,479 7249,450 7249,411 7257,384 7262,366 7276,337 7295,335 7309,334 7396,385 7407,546Z"/>
	<path fill="rgb(133,255,144)" d="M7406,545C7409,579 7415,631 7393,658 7383,671 7358,689 7342,684 7341,684 7267,581 7254,478 7250,451 7249,413 7257,386 7263,369 7277,338 7296,337 7304,336 7396,379 7406,545Z"/>
	<path fill="rgb(137,255,146)" d="M7406,546C7408,578 7413,628 7393,654 7382,668 7358,686 7341,682 7341,682 7268,577 7254,478 7251,453 7251,415 7258,390 7263,372 7277,341 7296,339 7304,338 7395,380 7406,546Z"/>
	<path fill="rgb(140,255,149)" d="M7404,545C7406,577 7411,625 7392,650 7381,664 7358,683 7340,679 7340,679 7268,574 7255,478 7251,453 7250,418 7257,393 7259,386 7292,342 7296,341 7304,341 7394,383 7404,545Z"/>
	<path fill="rgb(143,255,152)" d="M7403,545C7405,576 7405,619 7391,646 7384,662 7358,680 7341,676 7340,676 7269,572 7256,478 7253,454 7250,420 7258,397 7260,390 7294,344 7296,344 7310,342 7395,394 7403,545Z"/>
	<path fill="rgb(145,255,155)" d="M7402,546C7403,575 7404,616 7391,642 7383,659 7358,679 7341,674 7340,674 7270,569 7257,478 7254,455 7252,423 7258,400 7260,397 7295,346 7297,346 7310,344 7394,396 7402,546Z"/>
	<path fill="rgb(148,255,157)" d="M7401,545C7402,574 7403,613 7391,638 7383,654 7358,675 7340,671 7339,671 7270,568 7258,478 7255,456 7252,425 7259,404L7297,348C7305,348 7393,390 7401,545Z"/>
	<path fill="rgb(150,255,159)" d="M7399,546C7402,572 7402,610 7391,634 7383,651 7358,672 7340,668 7340,668 7272,570 7260,478 7257,457 7253,428 7260,408 7266,388 7277,355 7297,351 7298,351 7392,387 7399,546Z"/>
	<path fill="rgb(154,255,161)" d="M7399,545C7399,571 7402,608 7390,630 7382,647 7358,669 7340,665 7339,665 7273,569 7261,478 7258,458 7254,429 7260,410 7266,390 7277,355 7298,352 7299,352 7392,388 7399,545Z"/>
	<path fill="rgb(156,255,165)" d="M7398,546C7399,570 7401,606 7389,627 7381,644 7358,668 7340,663 7339,663 7274,568 7262,479 7260,459 7255,432 7260,413 7266,393 7277,359 7299,355 7300,355 7392,394 7398,546Z"/>
	<path fill="rgb(159,255,167)" d="M7396,546C7397,570 7399,602 7388,624 7381,640 7358,665 7339,661 7338,661 7274,567 7263,478 7260,459 7256,432 7262,413 7267,394 7278,360 7298,356 7299,356 7391,395 7396,546Z"/>
	<path fill="rgb(160,255,169)" d="M7395,546C7395,568 7398,599 7388,619 7380,636 7357,661 7338,658 7338,658 7275,566 7263,478 7261,459 7257,432 7263,413 7269,394 7279,361 7298,358 7299,358 7391,400 7395,546Z"/>
	<path fill="rgb(164,255,171)" d="M7394,545C7395,566 7397,596 7388,615 7379,632 7358,658 7338,655 7338,655 7276,565 7264,478 7262,458 7260,431 7265,412 7270,394 7281,362 7299,359 7300,359 7390,400 7394,545Z"/>
	<path fill="rgb(166,255,174)" d="M7393,545C7393,566 7396,593 7387,611 7381,622 7338,653 7338,653 7336,652 7277,561 7266,478 7263,458 7261,432 7266,413 7272,395 7281,364 7299,361 7300,361 7389,404 7393,545Z"/>
	<path fill="rgb(168,255,175)" d="M7392,546C7393,564 7395,590 7388,605 7374,631 7339,651 7338,651 7337,650 7279,563 7267,479 7265,459 7263,432 7268,413 7274,396 7283,366 7300,363 7301,363 7388,405 7392,546Z"/>
	<path fill="rgb(171,255,178)" d="M7391,546C7391,563 7393,587 7386,601 7367,637 7338,647 7338,647 7336,647 7279,561 7268,478 7266,459 7264,432 7270,413 7274,397 7283,367 7300,365 7302,365 7387,407 7391,546Z"/>
	<path fill="rgb(172,255,180)" d="M7390,546C7392,642 7338,645 7337,645 7335,645 7280,560 7269,478 7257,391 7300,366 7300,366 7301,366 7386,408 7390,546Z"/>
	<path fill="rgb(175,255,182)" d="M7389,546C7392,635 7338,643 7337,643 7336,642 7282,559 7271,478 7260,394 7301,369 7301,369 7302,368 7385,410 7389,546Z"/>
	<path fill="rgb(176,255,184)" d="M7388,545C7391,626 7338,640 7337,639 7336,639 7282,557 7272,478 7261,395 7301,370 7302,370 7302,370 7385,414 7388,545Z"/>
	<path fill="rgb(180,255,185)" d="M7387,545C7388,616 7338,637 7338,636 7335,636 7283,556 7273,478 7268,445 7269,377 7302,372 7302,372 7384,415 7387,545Z"/>
	<path fill="rgb(182,255,187)" d="M7385,546C7387,606 7337,635 7337,635 7335,634 7285,555 7274,478 7270,447 7270,379 7302,374 7302,374 7382,418 7385,546Z"/>
	<path fill="rgb(184,255,190)" d="M7384,546C7386,602 7337,631 7336,631 7331,631 7283,543 7275,478 7271,447 7270,380 7302,376 7303,376 7381,418 7384,546Z"/>
	<path fill="rgb(16,247,35)" d="M7467,237C7467,239 7468,242 7467,244 7464,250 7455,257 7448,258 7415,259 7344,167 7366,141 7376,128 7446,156 7467,237Z"/>
	<path fill="rgb(185,255,192)" d="M7383,545C7385,594 7337,629 7337,629 7329,627 7285,541 7276,478 7272,447 7272,382 7303,377 7304,377 7381,420 7383,545Z"/>
	<path fill="rgb(187,255,194)" d="M7381,545C7383,586 7340,627 7336,626 7328,625 7285,539 7277,478 7273,447 7271,383 7302,379 7303,379 7379,421 7381,545Z"/>
	<path fill="rgb(190,255,196)" d="M7380,546C7381,574 7341,625 7335,624 7328,623 7286,539 7278,478 7274,449 7273,386 7303,381 7303,381 7377,420 7380,546Z"/>
	<path fill="rgb(192,255,197)" d="M7380,546C7380,566 7336,622 7335,622 7325,619 7286,525 7279,478 7275,450 7274,387 7303,383 7304,383 7376,422 7380,546Z"/>
	<path fill="rgb(194,255,200)" d="M7379,546C7379,558 7336,619 7335,619 7325,617 7286,525 7281,478 7277,450 7275,389 7304,385 7305,385 7376,423 7379,546Z"/>
	<path fill="rgb(196,255,201)" d="M7376,523C7376,530 7379,539 7377,545 7377,546 7337,616 7335,616 7325,614 7288,523 7282,478 7278,449 7276,390 7305,386 7305,386 7362,405 7376,523Z"/>
	<path fill="rgb(197,255,202)" d="M7368,491C7370,507 7378,530 7375,546 7367,568 7347,593 7334,613 7315,574 7288,521 7282,478 7278,450 7276,392 7304,388 7305,388 7362,438 7368,491Z"/>
	<path fill="rgb(200,255,205)" d="M7373,546C7367,567 7346,591 7335,610 7315,572 7289,520 7284,478 7281,451 7278,394 7304,390 7327,387 7384,493 7373,546Z"/>
	<path fill="rgb(202,255,207)" d="M7371,545C7366,566 7346,589 7334,606 7315,570 7291,519 7285,478 7282,452 7278,396 7306,392 7327,389 7382,494 7371,545Z"/>
	<path fill="rgb(204,255,208)" d="M7369,546C7364,566 7345,587 7334,605 7316,569 7292,518 7286,478 7283,453 7279,398 7306,394 7316,393 7385,475 7369,546Z"/>
	<path fill="rgb(206,255,210)" d="M7367,546C7362,564 7344,585 7333,601 7316,566 7292,517 7287,478 7284,453 7280,398 7305,396 7314,394 7384,473 7367,546Z"/>
	<path fill="rgb(208,255,211)" d="M7365,545C7360,563 7342,583 7333,598 7316,564 7294,516 7289,478 7285,453 7281,400 7306,397 7314,397 7381,474 7365,545Z"/>
	<path fill="rgb(209,255,212)" d="M7363,546C7359,563 7343,581 7333,596 7316,563 7295,515 7290,478 7286,455 7282,402 7306,400 7312,399 7381,473 7363,546Z"/>
	<path fill="rgb(211,255,215)" d="M7360,545C7356,562 7341,579 7332,592 7316,560 7296,514 7291,478 7288,454 7282,404 7306,400 7308,400 7380,468 7360,545Z"/>
	<path fill="rgb(212,255,217)" d="M7358,546C7355,561 7341,577 7332,591 7316,559 7297,514 7292,478 7289,457 7284,407 7306,404 7318,402 7355,478 7356,478 7362,498 7363,527 7358,546Z"/>
	<path fill="rgb(215,255,218)" d="M7356,546C7353,561 7339,575 7331,587 7316,556 7297,513 7293,478 7290,457 7284,408 7307,405 7316,404 7353,478 7353,478 7360,497 7361,527 7356,546Z"/>
	<path fill="rgb(217,255,220)" d="M7354,546C7351,559 7338,573 7331,584 7316,555 7298,512 7294,478 7291,457 7285,410 7307,407 7314,405 7352,478 7352,478 7358,497 7360,526 7354,546Z"/>
	<path fill="rgb(218,255,221)" d="M7352,546C7350,558 7337,571 7331,582 7316,553 7299,511 7295,478 7292,458 7286,412 7307,409 7312,408 7351,478 7351,478 7357,498 7357,527 7352,546Z"/>
	<path fill="rgb(220,255,223)" d="M7351,546C7348,556 7336,569 7331,578 7268,456 7307,410 7308,410 7311,410 7349,478 7349,478 7355,497 7356,526 7351,546Z"/>
	<path fill="rgb(222,255,224)" d="M7349,546C7346,556 7335,567 7331,576 7273,462 7307,413 7308,413L7309,413C7310,413 7368,475 7349,546Z"/>
	<path fill="rgb(223,255,226)" d="M7346,546C7344,555 7335,564 7329,572 7316,546 7303,508 7298,478 7296,458 7306,434 7308,415 7358,501 7358,501 7346,546Z"/>
	<path fill="rgb(224,255,228)" d="M7344,546C7342,554 7334,563 7329,570 7316,544 7303,507 7299,478 7297,461 7306,437 7309,419 7328,454 7355,508 7344,546Z"/>
	<path fill="rgb(227,255,228)" d="M7343,546C7341,553 7334,561 7329,567 7317,542 7305,506 7302,478 7299,461 7307,439 7310,422 7329,456 7353,509 7343,546Z"/>
	<path fill="rgb(228,255,231)" d="M7340,545C7338,552 7331,559 7328,564 7317,539 7306,505 7301,478 7299,462 7307,442 7310,426 7328,458 7350,510 7340,545Z"/>
	<path fill="rgb(230,255,232)" d="M7338,546C7337,552 7331,557 7329,561 7317,538 7307,504 7303,478 7301,464 7308,444 7311,430 7329,461 7348,513 7338,546Z"/>
	<path fill="rgb(232,255,234)" d="M7337,545C7335,550 7331,554 7329,559 7317,535 7308,502 7304,478 7302,464 7310,446 7312,433 7329,463 7346,513 7337,545Z"/>
	<path fill="rgb(233,255,235)" d="M7334,546C7334,549 7330,552 7328,556 7318,534 7309,502 7306,478 7305,466 7310,450 7312,437 7329,466 7344,514 7334,546Z"/>
	<path fill="rgb(235,255,237)" d="M7332,546C7331,549 7328,551 7327,554 7317,532 7309,502 7306,478 7305,468 7310,453 7312,442 7328,469 7341,516 7332,546Z"/>
	<path fill="rgb(237,255,237)" d="M7329,546C7328,547 7327,548 7327,550 7317,530 7310,500 7307,478 7306,467 7311,454 7312,444 7328,471 7339,516 7329,546Z"/>
	<path fill="rgb(237,255,239)" d="M7328,546C7328,546 7328,547 7328,548 7318,528 7312,500 7309,478 7308,470 7312,458 7314,449 7329,474 7337,518 7328,546Z"/>
	<path fill="rgb(239,255,241)" d="M7327,540C7320,514 7310,478 7314,452 7328,475 7328,513 7327,540Z"/>
	<path fill="rgb(241,255,243)" d="M7326,531C7319,509 7311,478 7315,456 7328,476 7328,509 7326,531Z"/>
	<path fill="rgb(243,255,244)" d="M7324,522C7319,503 7311,477 7315,459 7326,476 7326,503 7324,522Z"/>
	<path fill="rgb(245,255,245)" d="M7323,514C7319,499 7313,478 7316,463 7324,476 7324,498 7323,514Z"/>
	<path fill="rgb(246,255,247)" d="M7322,505C7319,494 7314,478 7317,467 7323,477 7323,493 7322,505Z"/>
	<path fill="rgb(5,237,25)" d="M7367,301C7365,299 7359,296 7358,292 7357,289 7359,284 7361,281 7365,286 7368,295 7367,301Z"/>
	<path fill="rgb(0,57,0)" d="M7071,2164L7071,2097C7071,2097 7085,2097 7105,2097L7105,2164C7085,2164 7071,2164 7071,2164Z"/>
	<path fill="rgb(0,67,0)" d="M7104,2164L7104,2097C7107,2097 7109,2097 7112,2097L7112,2164C7109,2164 7107,2164 7104,2164Z"/>
	<path fill="rgb(0,75,0)" d="M7111,2164L7111,2097C7113,2097 7115,2097 7117,2097L7117,2164C7115,2164 7113,2164 7111,2164Z"/>
	<path fill="rgb(0,82,0)" d="M7116,2164L7116,2097C7117,2097 7121,2097 7122,2097L7122,2164C7121,2164 7117,2164 7116,2164Z"/>
	<path fill="rgb(0,90,0)" d="M7122,2164L7122,2097C7124,2097 7125,2097 7127,2097L7127,2164C7125,2164 7124,2164 7122,2164Z"/>
	<path fill="rgb(0,97,0)" d="M7126,2164L7126,2097C7128,2097 7129,2097 7131,2097L7131,2164C7129,2164 7128,2164 7126,2164Z"/>
	<path fill="rgb(0,106,0)" d="M7131,2164L7131,2097C7133,2097 7133,2097 7134,2097 7135,2097 7136,2097 7137,2097L7137,2164C7136,2164 7135,2164 7134,2164 7133,2164 7133,2164 7131,2164Z"/>
	<path fill="rgb(0,114,0)" d="M7136,2164L7136,2097C7138,2097 7139,2097 7141,2097L7141,2164C7139,2164 7138,2164 7136,2164Z"/>
	<path fill="rgb(0,122,0)" d="M7140,2164L7140,2097C7141,2097 7142,2097 7144,2097L7144,2164C7142,2164 7141,2164 7140,2164Z"/>
	<path fill="rgb(0,130,0)" d="M7144,2164L7144,2097C7146,2097 7149,2097 7150,2097L7150,2164C7149,2164 7146,2164 7144,2164Z"/>
	<path fill="rgb(0,138,0)" d="M7149,2164L7149,2097C7151,2097 7153,2097 7154,2097L7154,2164C7153,2164 7151,2164 7149,2164Z"/>
	<path fill="rgb(0,146,0)" d="M7153,2164L7153,2097C7155,2097 7157,2097 7160,2097L7160,2164C7157,2164 7155,2164 7153,2164Z"/>
	<path fill="rgb(0,154,0)" d="M7159,2164L7159,2097C7161,2097 7164,2097 7166,2097L7166,2164C7164,2164 7161,2164 7159,2164Z"/>
	<path fill="rgb(0,161,0)" d="M7165,2164L7165,2097C7169,2097 7172,2097 7175,2097L7175,2164C7172,2164 7169,2164 7165,2164Z"/>
	<path fill="rgb(0,170,0)" d="M7173,2164L7173,2097C7179,2097 7183,2097 7186,2097L7186,2164C7183,2164 7179,2164 7173,2164Z"/>
	<path fill="rgb(0,161,0)" d="M7186,2164L7186,2097C7188,2097 7191,2097 7192,2097L7192,2164C7191,2164 7188,2164 7186,2164Z"/>
	<path fill="rgb(0,154,0)" d="M7191,2164L7191,2097C7193,2097 7194,2097 7195,2097L7195,2164C7194,2164 7193,2164 7191,2164Z"/>
	<path fill="rgb(0,146,0)" d="M7193,2164L7193,2097C7195,2097 7195,2097 7196,2097L7196,2164C7195,2164 7195,2164 7193,2164Z"/>
	<path fill="rgb(0,138,0)" d="M7195,2164L7195,2097 7197,2097 7197,2164 7195,2164Z"/>
	<path fill="rgb(0,130,0)" d="M7196,2163L7196,2097 7196,2097 7196,2163Z"/>
	<path fill="rgb(0,122,0)" d="M7197,2164L7197,2097C7198,2097 7198,2097 7198,2097L7198,2164 7197,2164Z"/>
	<path fill="rgb(0,57,0)" d="M7071,2098L7071,2095C7071,2095 7085,2095 7104,2095L7104,2098C7085,2098 7071,2098 7071,2098Z"/>
	<path fill="rgb(0,67,0)" d="M7103,2098L7103,2095C7107,2095 7109,2095 7112,2095L7112,2098C7109,2098 7107,2098 7103,2098Z"/>
	<path fill="rgb(0,75,0)" d="M7111,2098L7111,2095C7113,2095 7115,2095 7117,2095L7117,2098C7115,2098 7113,2098 7111,2098Z"/>
	<path fill="rgb(0,82,0)" d="M7116,2098L7116,2095C7117,2095 7119,2095 7122,2095L7122,2098C7119,2098 7117,2098 7116,2098Z"/>
	<path fill="rgb(0,90,0)" d="M7121,2098L7121,2095C7123,2095 7125,2095 7127,2095L7127,2098C7125,2098 7123,2098 7121,2098Z"/>
	<path fill="rgb(0,97,0)" d="M7126,2098L7126,2095C7128,2095 7130,2095 7132,2095L7132,2098C7130,2098 7128,2098 7126,2098Z"/>
	<path fill="rgb(0,106,0)" d="M7131,2098L7131,2095C7131,2095 7133,2095 7134,2095 7135,2095 7135,2095 7136,2095L7136,2098C7135,2098 7135,2098 7134,2098 7133,2098 7131,2098 7131,2098Z"/>
	<path fill="rgb(0,114,0)" d="M7135,2098L7135,2095C7138,2095 7139,2095 7140,2095L7140,2098C7139,2098 7138,2098 7135,2098Z"/>
	<path fill="rgb(0,122,0)" d="M7139,2098L7139,2095C7142,2095 7143,2095 7145,2095L7145,2098C7143,2098 7142,2098 7139,2098Z"/>
	<path fill="rgb(0,130,0)" d="M7143,2098L7143,2095C7145,2095 7147,2095 7149,2095L7149,2098C7147,2098 7145,2098 7143,2098Z"/>
	<path fill="rgb(0,138,0)" d="M7148,2098L7148,2095C7150,2095 7152,2095 7153,2095L7153,2098C7152,2098 7150,2098 7148,2098Z"/>
	<path fill="rgb(0,146,0)" d="M7153,2098L7153,2095C7155,2095 7157,2095 7159,2095L7159,2098C7157,2098 7155,2098 7153,2098Z"/>
	<path fill="rgb(0,154,0)" d="M7158,2098L7158,2095C7160,2095 7163,2095 7165,2095L7165,2098C7163,2098 7160,2098 7158,2098Z"/>
	<path fill="rgb(0,161,0)" d="M7164,2098L7164,2095C7167,2095 7170,2095 7173,2095L7173,2098C7170,2098 7167,2098 7164,2098Z"/>
	<path fill="rgb(0,170,0)" d="M7172,2098L7172,2095C7178,2095 7184,2095 7188,2095L7188,2098C7184,2098 7178,2098 7172,2098Z"/>
	<path fill="rgb(0,161,0)" d="M7187,2098L7187,2095C7189,2095 7191,2095 7193,2095L7193,2098C7191,2098 7189,2098 7187,2098Z"/>
	<path fill="rgb(0,154,0)" d="M7192,2098L7192,2095C7193,2095 7194,2095 7196,2095L7196,2098C7194,2098 7193,2098 7192,2098Z"/>
	<path fill="rgb(0,146,0)" d="M7194,2098L7194,2095C7194,2095 7195,2095 7196,2095L7196,2098C7195,2098 7194,2098 7194,2098Z"/>
	<path fill="rgb(0,138,0)" d="M7195,2098L7195,2095C7196,2095 7197,2095 7198,2095L7198,2098C7197,2098 7196,2098 7195,2098Z"/>
	<path fill="rgb(0,122,0)" d="M7197,2098L7197,2095C7198,2095 7198,2095 7198,2095L7198,2098 7197,2098Z"/>
	<path fill="rgb(0,161,0)" d="M7071,2096C7071,2086 7071,2072 7052,2069 7052,2069 7088,2069 7134,2069 7181,2069 7218,2069 7218,2069 7198,2072 7198,2086 7198,2096 7198,2096 7169,2096 7134,2096 7099,2096 7071,2096 7071,2096Z"/>
	<path fill="rgb(0,161,0)" d="M7198,2096C7198,2096 7194,2096 7188,2096 7181,2093 7181,2093 7174,2096 7163,2096 7149,2096 7134,2096 7099,2096 7071,2096 7071,2096 7071,2086 7071,2072 7052,2069 7052,2069 7088,2069 7134,2069 7181,2069 7218,2069 7218,2069 7198,2072 7198,2086 7198,2096Z"/>
	<path fill="rgb(0,154,0)" d="M7198,2096C7198,2096 7196,2096 7192,2096 7182,2083 7165,2096 7165,2096 7155,2096 7146,2096 7134,2096 7099,2096 7071,2096 7071,2096 7071,2086 7071,2072 7052,2069 7052,2069 7088,2069 7134,2069 7181,2069 7218,2069 7218,2069 7198,2072 7198,2086 7198,2096Z"/>
	<path fill="rgb(0,146,0)" d="M7198,2096C7198,2096 7197,2096 7195,2096 7188,2086 7173,2086 7159,2096 7152,2096 7143,2096 7134,2096 7099,2096 7071,2096 7071,2096 7071,2086 7071,2072 7052,2069 7052,2069 7088,2069 7134,2069 7181,2069 7218,2069 7218,2069 7198,2072 7198,2086 7198,2096Z"/>
	<path fill="rgb(0,138,0)" d="M7198,2096L7196,2096C7194,2085 7172,2083 7153,2096 7148,2096 7141,2096 7134,2096 7099,2096 7071,2096 7071,2096 7071,2086 7071,2072 7052,2069 7052,2069 7088,2069 7134,2069 7181,2069 7218,2069 7218,2069 7198,2072 7198,2086 7198,2096Z"/>
	<path fill="rgb(0,130,0)" d="M7198,2096L7198,2096C7194,2079 7159,2086 7149,2096 7144,2096 7139,2096 7134,2096 7099,2096 7071,2096 7071,2096 7071,2086 7071,2072 7052,2069 7052,2069 7088,2069 7134,2069 7181,2069 7218,2069 7218,2069 7198,2072 7198,2086 7198,2096Z"/>
	<path fill="rgb(0,122,0)" d="M7198,2096L7198,2096C7196,2076 7156,2084 7144,2096 7141,2096 7138,2096 7134,2096 7099,2096 7071,2096 7071,2096 7071,2086 7071,2072 7052,2069 7052,2069 7088,2069 7134,2069 7181,2069 7218,2069 7218,2069 7198,2072 7198,2086 7198,2096Z"/>
	<path fill="rgb(0,114,0)" d="M7198,2096C7197,2069 7146,2090 7144,2091 7142,2093 7142,2094 7139,2096 7138,2096 7137,2096 7134,2096 7099,2096 7071,2096 7071,2096 7071,2086 7071,2072 7052,2069 7052,2069 7088,2069 7134,2069 7181,2069 7218,2069 7218,2069 7198,2072 7198,2086 7198,2096Z"/>
	<path fill="rgb(0,106,0)" d="M7198,2092C7198,2072 7141,2090 7139,2091 7138,2093 7137,2094 7135,2096 7099,2096 7071,2096 7071,2096 7071,2086 7071,2072 7052,2069 7052,2069 7088,2069 7134,2069 7181,2069 7218,2069 7218,2069 7201,2072 7198,2082 7198,2092Z"/>
	<path fill="rgb(0,97,0)" d="M7198,2089C7198,2071 7135,2090 7135,2091 7133,2093 7132,2094 7130,2096 7098,2096 7071,2096 7071,2096 7071,2086 7071,2072 7052,2069 7052,2069 7088,2069 7134,2069 7181,2069 7218,2069 7218,2069 7202,2072 7199,2081 7198,2089Z"/>
	<path fill="rgb(0,90,0)" d="M7198,2087C7199,2082 7196,2080 7167,2082 7142,2083 7130,2091 7130,2091 7128,2093 7127,2094 7126,2096 7095,2096 7071,2096 7071,2096 7071,2086 7071,2072 7052,2069 7052,2069 7088,2069 7134,2069 7181,2069 7218,2069 7218,2069 7204,2071 7200,2079 7198,2087Z"/>
	<path fill="rgb(0,82,0)" d="M7199,2085C7198,2083 7198,2079 7167,2081 7136,2083 7127,2088 7125,2091 7123,2093 7122,2094 7121,2096 7093,2096 7071,2096 7071,2096 7071,2086 7071,2072 7052,2069 7052,2069 7088,2069 7134,2069 7181,2069 7218,2069 7218,2069 7206,2071 7201,2078 7199,2085Z"/>
	<path fill="rgb(0,75,0)" d="M7199,2083C7199,2082 7198,2077 7152,2081 7128,2083 7119,2091 7119,2091 7118,2093 7118,2094 7116,2096 7090,2096 7071,2096 7071,2096 7071,2086 7071,2072 7052,2069 7052,2069 7088,2069 7134,2069 7181,2069 7218,2069 7218,2069 7206,2071 7202,2077 7199,2083Z"/>
	<path fill="rgb(0,67,0)" d="M7200,2082C7197,2072 7135,2082 7134,2082 7117,2085 7112,2093 7110,2096 7087,2096 7071,2096 7071,2096 7071,2086 7071,2072 7052,2069 7052,2069 7088,2069 7134,2069 7181,2069 7218,2069 7218,2069 7207,2071 7202,2076 7200,2082Z"/>
	<path fill="rgb(0,57,0)" d="M7201,2079C7201,2079 7201,2078 7200,2077 7199,2076 7114,2071 7104,2096 7084,2096 7071,2096 7071,2096 7071,2086 7071,2072 7052,2069 7052,2069 7088,2069 7134,2069 7181,2069 7218,2069 7218,2069 7208,2071 7203,2074 7201,2079Z"/>
	<path fill="rgb(0,194,0)" d="M7027,2194C7051,2186 7070,2175 7071,2163 7071,2163 7099,2163 7134,2163 7169,2163 7198,2163 7198,2163 7200,2175 7219,2186 7242,2194 7242,2194 7194,2194 7134,2194 7075,2194 7027,2194 7027,2194Z"/>
	<path fill="rgb(0,194,0)" d="M7242,2194C7242,2194 7237,2194 7230,2194 7230,2194 7231,2193 7231,2192 7232,2191 7228,2190 7222,2186 7215,2182 7213,2181 7210,2179 7218,2184 7230,2190 7242,2194Z"/>
	<path fill="rgb(0,194,0)" d="M7203,2172C7196,2165 7194,2162 7172,2164 7149,2165 7137,2171 7138,2177 7139,2180 7144,2190 7190,2194 7173,2194 7154,2194 7134,2194 7075,2194 7027,2194 7027,2194 7051,2186 7070,2175 7071,2163 7071,2163 7099,2163 7134,2163 7169,2163 7198,2163 7198,2163 7198,2166 7201,2170 7203,2172Z"/>
	<path fill="rgb(0,185,0)" d="M7242,2194C7242,2194 7240,2194 7239,2194 7233,2190 7228,2189 7223,2186 7229,2189 7235,2191 7242,2194Z"/>
	<path fill="rgb(0,185,0)" d="M7201,2170C7198,2166 7197,2165 7185,2163 7193,2163 7198,2163 7198,2163 7198,2165 7199,2168 7201,2170Z"/>
	<path fill="rgb(0,178,0)" d="M7242,2194C7241,2193 7239,2193 7237,2191 7239,2193 7241,2193 7242,2194Z"/>
	<path fill="rgb(0,178,0)" d="M7200,2170C7198,2166 7197,2165 7190,2163 7195,2163 7198,2163 7198,2163 7198,2165 7198,2167 7200,2170Z"/>
	<path fill="rgb(0,170,0)" d="M7199,2168C7198,2165 7196,2164 7193,2163 7197,2163 7198,2163 7198,2163 7198,2165 7199,2166 7199,2168Z"/>
	<path fill="rgb(0,161,0)" d="M7199,2167C7199,2166 7198,2165 7195,2163 7197,2163 7199,2163 7199,2163 7199,2165 7199,2166 7199,2167Z"/>
	<path fill="rgb(0,154,0)" d="M7199,2167C7198,2165 7198,2165 7196,2163 7197,2163 7198,2163 7198,2163 7198,2165 7198,2166 7199,2167Z"/>
	<path fill="rgb(0,146,0)" d="M7198,2166C7198,2165 7197,2165 7197,2163 7198,2163 7198,2163 7198,2163 7198,2165 7198,2165 7198,2166Z"/>
	<path fill="rgb(0,138,0)" d="M7197,2164L7197,2163C7197,2164 7197,2164 7197,2164Z"/>
	<path fill="rgb(0,130,0)" d="M7197,2163L7197,2163Z"/>
	<path fill="rgb(0,185,0)" d="M7172,2163C7127,2166 7130,2177 7135,2183 7141,2190 7158,2192 7164,2194 7155,2194 7145,2194 7134,2194 7075,2194 7027,2194 7027,2194 7051,2186 7070,2175 7071,2163 7071,2163 7099,2163 7134,2163 7151,2163 7164,2163 7176,2163 7174,2163 7174,2163 7172,2163Z"/>
	<path fill="rgb(0,178,0)" d="M7164,2164C7113,2169 7128,2184 7132,2187 7135,2191 7139,2192 7146,2194 7142,2194 7138,2194 7134,2194 7075,2194 7027,2194 7027,2194 7051,2186 7070,2175 7071,2163 7071,2163 7099,2163 7134,2163 7146,2163 7157,2163 7167,2163 7166,2163 7165,2163 7164,2164Z"/>
	<path fill="rgb(0,170,0)" d="M7156,2164C7103,2172 7125,2191 7125,2191 7125,2191 7126,2192 7130,2194 7072,2194 7027,2194 7027,2194 7051,2186 7070,2175 7071,2163 7071,2163 7099,2163 7134,2163 7144,2163 7153,2163 7161,2163 7160,2164 7157,2164 7156,2164Z"/>
	<path fill="rgb(0,161,0)" d="M7156,2163C7099,2172 7114,2193 7114,2194 7064,2194 7027,2194 7027,2194 7051,2186 7070,2175 7071,2163 7071,2163 7099,2163 7134,2163 7143,2163 7149,2163 7156,2163Z"/>
	<path fill="rgb(0,154,0)" d="M7147,2164C7120,2169 7104,2179 7101,2194 7057,2194 7027,2194 7027,2194 7051,2186 7070,2175 7071,2163 7071,2163 7100,2163 7134,2163 7141,2163 7146,2163 7152,2163 7151,2164 7149,2164 7147,2164Z"/>
	<path fill="rgb(0,146,0)" d="M7146,2163C7121,2168 7121,2168 7088,2194 7052,2194 7027,2194 7027,2194 7051,2186 7071,2175 7071,2163 7071,2163 7100,2163 7134,2163 7139,2163 7143,2163 7148,2163 7148,2163 7147,2163 7146,2163Z"/>
	<path fill="rgb(0,138,0)" d="M7138,2165C7129,2166 7122,2167 7116,2170 7102,2177 7090,2187 7076,2194 7046,2194 7027,2194 7027,2194 7051,2186 7071,2175 7071,2163 7071,2163 7100,2163 7134,2163 7138,2163 7141,2163 7143,2163 7142,2164 7139,2164 7138,2165Z"/>
	<path fill="rgb(0,130,0)" d="M7138,2164C7124,2166 7123,2166 7118,2168 7100,2175 7084,2187 7065,2194 7042,2194 7027,2194 7027,2194 7051,2186 7071,2175 7071,2163 7071,2163 7100,2163 7134,2163 7137,2163 7138,2163 7139,2163L7138,2164Z"/>
	<path fill="rgb(0,122,0)" d="M7128,2165C7101,2171 7079,2187 7054,2194 7037,2194 7027,2194 7027,2194 7051,2186 7071,2175 7071,2163 7071,2163 7100,2163 7134,2163 7135,2163 7135,2163 7136,2163 7133,2164 7130,2164 7128,2165Z"/>
	<path fill="rgb(0,202,0)" d="M7208,2177C7208,2178 7211,2180 7216,2183 7219,2185 7224,2188 7224,2190 7223,2195 7188,2191 7179,2191 7150,2186 7144,2180 7142,2177 7142,2176 7142,2175 7142,2174 7144,2166 7174,2164 7185,2165 7194,2165 7197,2167 7197,2167 7202,2169 7204,2174 7208,2177Z"/>
	<path fill="rgb(0,114,0)" d="M7128,2164C7099,2170 7073,2187 7044,2194 7033,2194 7027,2194 7027,2194 7051,2186 7071,2175 7071,2163 7071,2163 7098,2163 7132,2163 7131,2164 7129,2164 7128,2164Z"/>
	<path fill="rgb(0,106,0)" d="M7118,2165C7101,2169 7087,2177 7071,2183 7065,2186 7054,2190 7036,2194 7031,2194 7027,2194 7027,2194 7051,2186 7071,2175 7071,2163 7071,2163 7096,2163 7128,2163 7124,2164 7122,2165 7118,2165Z"/>
	<path fill="rgb(0,210,0)" d="M7208,2177C7217,2186 7221,2188 7209,2189 7187,2191 7146,2182 7147,2174 7148,2166 7177,2165 7185,2165 7193,2165 7195,2166 7196,2166 7201,2169 7204,2174 7208,2177Z"/>
	<path fill="rgb(0,97,0)" d="M7118,2165C7112,2166 7103,2168 7086,2175 7061,2186 7044,2190 7030,2194 7027,2194 7027,2194 7027,2194 7051,2186 7071,2175 7071,2163 7071,2163 7093,2163 7124,2163 7122,2164 7120,2164 7118,2165Z"/>
	<path fill="rgb(0,90,0)" d="M7118,2164C7106,2166 7106,2166 7094,2170 7082,2174 7071,2180 7059,2183 7049,2187 7038,2190 7027,2194 7050,2186 7070,2175 7071,2163 7071,2163 7092,2163 7119,2163 7118,2163 7118,2163 7118,2164Z"/>
	<path fill="rgb(0,218,6)" d="M7206,2177C7211,2181 7216,2186 7195,2186 7179,2186 7153,2180 7152,2174 7152,2166 7188,2161 7199,2170 7202,2172 7204,2175 7206,2177Z"/>
	<path fill="rgb(0,82,0)" d="M7109,2165C7089,2169 7039,2190 7038,2190 7056,2183 7070,2172 7071,2163 7071,2163 7089,2163 7114,2163 7113,2164 7111,2164 7109,2165Z"/>
	<path fill="rgb(0,226,14)" d="M7204,2177C7210,2186 7186,2183 7181,2182 7163,2180 7157,2174 7157,2174 7157,2173 7158,2172 7159,2171 7160,2169 7174,2165 7190,2166 7194,2167 7199,2169 7204,2177Z"/>
	<path fill="rgb(0,75,0)" d="M7110,2164C7079,2171 7047,2186 7047,2186 7061,2180 7071,2171 7071,2163 7071,2163 7088,2163 7111,2163 7110,2163 7110,2163 7110,2164Z"/>
	<path fill="rgb(0,67,0)" d="M7101,2165C7081,2169 7060,2180 7054,2182 7064,2176 7070,2170 7071,2163 7071,2163 7085,2163 7105,2163 7104,2164 7102,2164 7101,2165Z"/>
	<path fill="rgb(2,234,21)" d="M7201,2177C7200,2181 7191,2181 7188,2180 7166,2178 7163,2174 7163,2174 7163,2173 7163,2172 7163,2171 7165,2169 7180,2166 7186,2167 7191,2169 7201,2171 7201,2177Z"/>
	<path fill="rgb(0,57,0)" d="M7093,2165C7081,2168 7066,2174 7060,2178 7066,2173 7070,2169 7071,2163 7071,2163 7082,2163 7099,2163 7097,2164 7095,2164 7093,2165Z"/>
	<path fill="rgb(9,242,30)" d="M7195,2175L7192,2177C7189,2178 7187,2178 7185,2178 7181,2177 7172,2175 7172,2175 7170,2173 7170,2172 7170,2171 7172,2169 7183,2169 7186,2169 7188,2169 7191,2169 7193,2171 7194,2171 7195,2173 7195,2175Z"/>
	<path fill="rgb(0,104,0)" d="M7049,2141L7245,2199 7980,2492C8015,2508 8008,2512 7971,2525L7852,2571C7819,2582 7820,2581 7765,2551 7402,2357 6812,2153 6384,2029 6356,2022 6357,2009 6361,1997 6369,1978 6385,1979 6397,1981L7049,2141Z"/>
	<path fill="rgb(0,161,0)" d="M6394,1405C6395,1398 6395,1397 6396,1395 6397,1394 6397,1392 6398,1391 6398,1389 6400,1387 6401,1386 6401,1386 6402,1384 6404,1382 6405,1381 6406,1380 6407,1379 6409,1379 6410,1378 6412,1377 6413,1376 6414,1376 6416,1375 6418,1375 6419,1374 6420,1374 6425,1373 6741,1373 7132,1373 7524,1373 7843,1373 7844,1373 7851,1374 7852,1375 7855,1375 7855,1376 7857,1376 7858,1377 7860,1378 7861,1379 7862,1379 7864,1380 7865,1381 7866,1382 7868,1384 7869,1386 7870,1386 7871,1387 7872,1389 7872,1391 7873,1392 7873,1394 7874,1395 7875,1397 7875,1398 7876,1400 7876,1792 7481,2030 7218,2070 7217,2070 7180,2070 7134,2070 7089,2070 7053,2070 7053,2070 6789,2030 6394,1792 6394,1405Z"/>
	<path fill="rgb(0,161,0)" d="M7855,1375C7860,1378 7861,1379 7862,1379 7868,1384 7869,1386 7870,1386 7873,1392 7873,1394 7874,1395 7875,1397 7875,1398 7876,1400L7876,1405C7876,1792 7481,2030 7218,2070 7217,2070 7180,2070 7134,2070 7089,2070 7053,2070 7053,2070 6789,2030 6394,1792 6394,1405L6395,1400C6397,1394 6397,1392 6398,1391 6401,1386 6402,1384 6404,1382 6409,1379 6410,1378 6412,1377 6418,1375 6419,1374 6420,1374L6426,1373C6425,1373 6741,1373 7132,1373 7524,1373 7843,1373 7844,1373L7849,1374C7851,1374 7852,1375 7855,1375Z"/>
	<path fill="rgb(0,154,0)" d="M7855,1375C7860,1378 7861,1379 7862,1379 7868,1384 7869,1386 7870,1386 7873,1392 7873,1394 7874,1395 7875,1397 7875,1398 7876,1400L7876,1405C7876,1792 7481,2030 7218,2070 7217,2070 7180,2070 7134,2070 7089,2070 7053,2070 7053,2070 6789,2030 6394,1792 6394,1405L6395,1400C6397,1394 6397,1392 6398,1391 6401,1386 6402,1384 6404,1382 6409,1379 6410,1378 6412,1377 6418,1375 6419,1374 6420,1374L6426,1373C6425,1373 6741,1373 7132,1373 7524,1373 7843,1373 7844,1373L7849,1374C7851,1374 7852,1375 7855,1375Z"/>
	<path fill="rgb(0,146,0)" d="M7855,1375C7860,1378 7861,1379 7862,1379 7868,1384 7869,1386 7870,1386 7873,1392 7873,1394 7874,1395 7875,1397 7875,1398 7876,1400L7876,1405C7876,1792 7481,2030 7218,2070 7217,2070 7180,2070 7134,2070 7089,2070 7053,2070 7053,2070 6789,2030 6394,1792 6394,1405L6395,1400C6397,1394 6397,1392 6398,1391 6401,1386 6402,1384 6404,1382 6409,1379 6410,1378 6412,1377 6418,1375 6419,1374 6420,1374L6426,1373C6425,1373 6741,1373 7132,1373 7524,1373 7843,1373 7844,1373L7849,1374C7851,1374 7852,1375 7855,1375Z"/>
	<path fill="rgb(0,138,0)" d="M7855,1375C7860,1378 7861,1379 7862,1379 7868,1384 7869,1386 7870,1386 7873,1392 7873,1394 7874,1395 7875,1397 7875,1398 7876,1400L7876,1405C7876,1792 7481,2030 7218,2070 7217,2070 7180,2070 7134,2070 7089,2070 7053,2070 7053,2070 6789,2030 6394,1792 6394,1405L6395,1400C6397,1394 6397,1392 6398,1391 6401,1386 6402,1384 6404,1382 6409,1379 6410,1378 6412,1377 6418,1375 6419,1374 6420,1374L6426,1373C6425,1373 6741,1373 7132,1373 7524,1373 7843,1373 7844,1373L7849,1374C7851,1374 7852,1375 7855,1375Z"/>
	<path fill="rgb(0,130,0)" d="M7876,1405C7876,1792 7481,2030 7218,2070 7217,2070 7180,2070 7134,2070 7089,2070 7053,2070 7053,2070 6789,2030 6394,1792 6394,1405L6395,1401C6397,1394 6397,1392 6398,1391 6401,1386 6402,1384 6404,1383 6409,1379 6410,1379 6412,1377 6418,1375 6419,1374 6420,1374L6425,1374C6603,1374 6603,1374 6999,1393 7107,1398 7217,1387 7325,1405 7438,1425 7533,1504 7651,1505 7656,1505 7766,1492 7767,1491 7808,1472 7827,1430 7861,1405 7864,1402 7871,1403 7876,1401L7876,1405Z"/>
	<path fill="rgb(0,122,0)" d="M7876,1405C7876,1792 7481,2030 7218,2070 7217,2070 7180,2070 7134,2070 7089,2070 7053,2070 7053,2070 6789,2030 6394,1792 6394,1405L6395,1401C6397,1394 6397,1392 6398,1391 6401,1386 6402,1384 6404,1383 6409,1379 6410,1379 6412,1377 6418,1375 6419,1374 6420,1374L6423,1374C6603,1375 6603,1375 7008,1395 7099,1400 7191,1390 7280,1405 7314,1411 7349,1446 7381,1460 7508,1511 7551,1529 7647,1530 7738,1531 7776,1510 7792,1500 7831,1479 7840,1435 7869,1405 7871,1404 7873,1404 7876,1403L7876,1405Z"/>
	<path fill="rgb(0,114,0)" d="M7876,1405C7876,1792 7481,2030 7218,2070 7217,2070 7180,2070 7134,2070 7089,2070 7053,2070 7053,2070 6789,2030 6394,1792 6394,1405L6395,1401C6397,1394 6397,1392 6398,1391 6401,1386 6402,1384 6404,1383 6409,1379 6410,1379 6412,1377 6418,1375 6419,1374 6420,1374L6422,1374C6852,1381 7231,1409 7233,1409 7296,1416 7332,1471 7387,1491 7503,1532 7809,1644 7876,1404 7876,1405 7876,1405 7876,1405Z"/>
	<path fill="rgb(0,106,0)" d="M7218,2070C7217,2070 7180,2070 7134,2070 7089,2070 7053,2070 7053,2070 6789,2030 6394,1792 6394,1405L6395,1400C6397,1394 6397,1392 6398,1391 6401,1386 6402,1384 6404,1382 6409,1379 6410,1378 6412,1377 6417,1375 6419,1375 6419,1374 6628,1380 6835,1393 7042,1401 7256,1409 7423,1573 7638,1578 7858,1583 7871,1459 7876,1418 7867,1797 7478,2030 7218,2070Z"/>
	<path fill="rgb(0,97,0)" d="M7218,2070C7217,2070 7180,2070 7134,2070 7089,2070 7053,2070 7053,2070 6789,2030 6394,1792 6394,1405L6395,1401C6397,1394 6397,1392 6398,1391 6401,1386 6402,1384 6404,1383 6409,1379 6410,1379 6412,1377 6417,1375 6417,1375 6418,1375L7087,1405C7101,1408 7118,1418 7132,1425 7200,1454 7258,1504 7325,1534 7372,1555 7422,1562 7471,1578 7518,1594 7631,1601 7632,1601 7712,1606 7851,1594 7873,1454 7842,1812 7469,2031 7218,2070Z"/>
	<path fill="rgb(0,90,0)" d="M7218,2070C7217,2070 7180,2070 7134,2070 7089,2070 7053,2070 7053,2070 6789,2030 6394,1792 6394,1405L6395,1400C6397,1394 6397,1391 6398,1390 6401,1386 6402,1384 6404,1382 6409,1379 6410,1378 6412,1377 6412,1376 6414,1376 6415,1375 7061,1406 7061,1406 7114,1448 7338,1626 7813,1718 7869,1493 7815,1828 7461,2033 7218,2070Z"/>
	<path fill="rgb(0,82,0)" d="M7218,2070C7217,2070 7180,2070 7134,2070 7089,2070 7053,2070 7053,2070 6789,2030 6394,1792 6394,1405L6395,1401C6397,1394 6397,1392 6398,1391 6401,1386 6402,1384 6404,1383 6409,1379 6410,1378 6412,1377 6412,1377 6413,1376 6414,1376 6602,1387 6791,1377 6979,1404 6991,1407 6991,1407 7081,1472 7330,1654 7799,1720 7860,1536 7784,1845 7450,2035 7218,2070Z"/>
	<path fill="rgb(0,75,0)" d="M7218,2070C7217,2070 7180,2070 7134,2070 7089,2070 7053,2070 7053,2070 6789,2030 6394,1792 6394,1405L6395,1400C6397,1394 6397,1392 6398,1391 6401,1386 6402,1384 6404,1383 6409,1379 6410,1378 6412,1377 6580,1389 6751,1366 6918,1404 6999,1423 7044,1495 7108,1538 7251,1634 7760,1787 7848,1577 7755,1861 7439,2036 7218,2070Z"/>
	<path fill="rgb(0,67,0)" d="M7218,2069C7217,2069 7180,2069 7134,2069 7089,2069 7053,2069 7053,2069 6789,2029 6394,1792 6394,1405L6395,1400C6397,1393 6397,1391 6398,1390 6401,1385 6402,1384 6404,1382 6408,1379 6409,1379 6409,1378 6563,1398 6719,1362 6870,1405 6896,1411 6917,1445 6936,1463 6941,1467 6988,1503 7087,1569 7121,1592 7429,1723 7581,1733 7710,1740 7806,1669 7834,1615 7834,1616 7834,1616 7834,1616 7725,1878 7429,2037 7218,2069Z"/>
	<path fill="rgb(0,57,0)" d="M7218,2069C7217,2069 7180,2069 7134,2069 7089,2069 7053,2069 7053,2069 6789,2029 6394,1791 6394,1405L6395,1400C6397,1393 6397,1391 6398,1390 6401,1385 6402,1384 6404,1382 6405,1382 6405,1381 6406,1380 6523,1394 6644,1362 6758,1404 6786,1414 6814,1443 6835,1463 6939,1566 6950,1577 7132,1642 7143,1645 7159,1649 7171,1652 7222,1668 7251,1718 7301,1734 7381,1760 7394,1762 7548,1775 7551,1775 7555,1775 7559,1776 7741,1779 7774,1725 7815,1655 7695,1894 7418,2039 7218,2069Z"/>
	<path fill="rgb(0,138,0)" d="M7854,1375C7859,1378 7861,1379 7862,1379 7867,1384 7869,1386 7870,1386 7872,1392 7872,1394 7874,1395 7874,1397 7874,1398 7875,1400 7872,1401 7870,1402 7869,1402 7862,1404 7854,1403 7848,1405 7842,1408 7836,1414 7831,1418 7785,1458 7758,1482 7653,1480 7640,1480 7625,1475 7613,1473 7577,1465 7541,1464 7505,1453 7475,1444 7441,1413 7410,1410L6734,1375C6775,1373 6780,1373 7844,1373L7849,1374C7850,1374 7851,1375 7854,1375Z"/>
	<path fill="rgb(0,146,0)" d="M7854,1375C7859,1379 7861,1379 7862,1380 7867,1384 7869,1386 7870,1387 7872,1392 7872,1394 7874,1396L7874,1397C7872,1399 7870,1401 7869,1401 7850,1406 7830,1402 7811,1408 7802,1410 7794,1421 7786,1426 7759,1448 7656,1454 7655,1454 7586,1453 7527,1413 7460,1406 7337,1393 7215,1400 7092,1394 7072,1393 6887,1384 6828,1375 6956,1373 7838,1374 7846,1374L7849,1374C7850,1374 7851,1375 7854,1375Z"/>
	<path fill="rgb(0,154,0)" d="M7855,1375C7855,1376 7857,1376 7859,1377 7860,1379 7861,1379 7862,1380 7865,1381 7865,1381 7866,1383 7868,1384 7869,1386 7870,1387 7871,1388 7872,1390 7872,1391 7873,1392 7873,1394 7874,1396 7871,1399 7865,1401 7861,1401 7860,1402 7657,1427 7657,1427 7612,1427 7569,1409 7525,1406 7413,1398 7301,1401 7189,1396 7122,1394 7122,1394 6899,1379 6939,1370 7843,1373 7848,1374 7851,1374 7852,1375 7855,1375Z"/>
	<path fill="rgb(0,161,0)" d="M7854,1375C7855,1376 7857,1376 7858,1377 7859,1378 7861,1379 7862,1379 7864,1380 7865,1381 7866,1383 7867,1384 7869,1386 7870,1387 7870,1387 7871,1390 7872,1391 7872,1391 7872,1393 7873,1394 7850,1414 7260,1407 6952,1379 7085,1370 7846,1374 7850,1374 7851,1375 7852,1375 7854,1375Z"/>
	<path fill="rgb(0,170,0)" d="M7854,1376C7855,1377 7857,1377 7858,1378 7860,1380 7861,1380 7862,1381 7864,1382 7865,1383 7866,1384 7867,1385 7869,1387 7870,1388 7870,1389 7871,1391 7872,1392L7872,1393C7846,1417 7197,1403 7007,1380 7228,1372 7850,1376 7851,1376 7852,1376 7853,1376 7854,1376Z"/>
	<path fill="rgb(0,178,0)" d="M7858,1377C7860,1378 7861,1379 7862,1379 7864,1380 7865,1381 7866,1383 7867,1384 7869,1386 7870,1386 7871,1387 7871,1389 7872,1389 7836,1420 7177,1399 7063,1379 7265,1371 7853,1375 7855,1376 7857,1376 7857,1376 7858,1377Z"/>
	<path fill="rgb(0,185,0)" d="M7858,1377C7859,1379 7860,1379 7861,1380 7864,1381 7864,1381 7865,1383 7867,1384 7869,1386 7869,1387 7869,1388 7870,1390 7870,1391 7868,1393 7216,1416 7123,1380 7164,1372 7854,1376 7857,1377 7858,1377 7858,1377 7858,1377Z"/>
	<path fill="rgb(0,194,0)" d="M7863,1391C7839,1402 7556,1408 7183,1384 7184,1383 7184,1381 7185,1380 7191,1377 7863,1368 7868,1384 7868,1386 7867,1387 7866,1390 7865,1390 7864,1391 7863,1391Z"/>
	<path fill="rgb(0,202,0)" d="M7854,1391C7837,1398 7591,1409 7230,1384 7282,1369 7864,1369 7864,1384 7864,1385 7861,1390 7854,1391Z"/>
	<path fill="rgb(0,210,0)" d="M7845,1391C7832,1394 7595,1406 7278,1384 7356,1372 7855,1370 7857,1383 7858,1383 7858,1387 7845,1391Z"/>
	<path fill="rgb(0,218,6)" d="M7842,1388C7811,1397 7590,1403 7323,1385 7444,1375 7812,1371 7850,1385 7847,1386 7845,1387 7842,1388Z"/>
	<path fill="rgb(0,226,14)" d="M7794,1392C7792,1392 7664,1402 7389,1385 7528,1376 7762,1373 7837,1385 7812,1390 7794,1392 7794,1392Z"/>
	<path fill="rgb(2,234,21)" d="M7769,1391C7765,1391 7670,1398 7450,1384 7452,1384 7686,1372 7811,1384 7782,1389 7769,1391 7769,1391Z"/>
	<path fill="rgb(9,242,30)" d="M7767,1386C7707,1391 7707,1391 7523,1384 7643,1381 7724,1379 7777,1384 7775,1384 7770,1386 7767,1386Z"/>
	<path fill="rgb(0,0,0)" d="M2602,1778C2576,1963 2433,2114 2159,2114 1826,2114 1598,1879 1598,1546 1598,1187 1872,896 2182,896 2407,896 2571,1062 2571,1221 2571,1320 2510,1385 2428,1385 2348,1385 2285,1320 2285,1239 2285,1165 2336,1111 2412,1111 2420,1111 2430,1113 2438,1113 2407,998 2323,931 2200,931 1983,931 1890,1121 1890,1510 1890,1884 1970,2063 2192,2063 2428,2063 2537,1922 2558,1774L2602,1778Z"/>
	<path fill="rgb(0,0,0)" d="M3803,1521C3803,1861 3537,2117 3235,2117 2903,2117 2672,1856 2672,1521 2672,1159 2925,896 3258,896 3560,896 3803,1154 3803,1521Z M2961,1531C2961,1894 3056,2081 3233,2081 3404,2081 3511,1891 3511,1533 3511,1139 3412,931 3237,931 3054,931 2961,1131 2961,1531Z"/>
	<path fill="rgb(0,0,0)" d="M0,2066L231,2066 850,115 893,115 1545,2066 1741,2066 1741,2110 1030,2110 1030,2066 1260,2066 1072,1482 484,1482 302,2066 549,2066 549,2110 0,2110 0,2066Z M1038,1401L770,595 509,1401 1038,1401Z"/>
	<path fill="rgb(0,0,0)" d="M3807,2065L4000,2065 4000,981 3813,981 3813,936C3965,936 4102,941 4225,922L4225,1215C4321,1015 4436,917 4567,917 4676,917 4734,974 4734,1077 4734,1153 4688,1206 4611,1206 4541,1206 4489,1143 4489,1077 4489,1055 4495,1040 4495,1027 4495,1011 4492,1005 4482,1005 4386,1005 4231,1234 4231,1455L4231,2065 4444,2065 4444,2108 3807,2108 3807,2065Z"/>
	<path fill="rgb(0,0,0)" d="M4792,2065L4950,2065 4950,985 4792,985 4792,936C4810,936 4827,936 4845,936 4964,936 5073,942 5172,923L5172,1257C5257,1024 5406,905 5605,905 5807,905 5930,1028 5930,1241L5930,2065 6082,2065 6082,2108 5541,2108 5541,2065 5707,2065 5707,1232C5707,1075 5649,999 5526,999 5345,999 5178,1219 5178,1521L5178,2065 5333,2065 5333,2108 4792,2108 4792,2065Z"/>
</svg>