<?xml version="1.0" encoding="UTF-8"?>
<svg id="svg3" width="10.885in" height="10.417in" version="1.1" viewBox="0 0 1045 1e3" xmlns="http://www.w3.org/2000/svg" xmlns:cc="http://creativecommons.org/ns#" xmlns:dc="http://purl.org/dc/elements/1.1/" xmlns:rdf="http://www.w3.org/1999/02/22-rdf-syntax-ns#">
 <metadata id="metadata9">
  <rdf:RDF>
   <cc:Work rdf:about="">
    <dc:format>image/svg+xml</dc:format>
    <dc:type rdf:resource="http://purl.org/dc/dcmitype/StillImage"/>
    <dc:title/>
   </cc:Work>
  </rdf:RDF>
 </metadata>
 <g id="g3132" transform="matrix(1.2759 -.96148 .96148 1.2759 -843.81 -126.41)" fill="#1f70c1">
  <polygon id="Rectangle-path" transform="matrix(.54677 0 0 .54677 176.16 643.85)" points="194.43 373.22 194.43 401.05 0 401.05 0 373.22"/>
  <polygon id="Rectangle-path_1_" transform="matrix(.54677 0 0 .54677 176.16 643.85)" points="194.43 319.83 194.43 347.76 0 347.76 0 319.83"/>
  <polygon id="Rectangle-path_2_" transform="matrix(.54677 0 0 .54677 176.16 643.85)" points="138.87 266.54 138.87 294.47 55.468 294.47 55.468 266.54"/>
  <polygon id="Rectangle-path_3_" transform="matrix(.54677 0 0 .54677 176.16 643.85)" points="138.87 213.25 138.87 241.18 55.468 241.18 55.468 213.25"/>
  <polygon id="Rectangle-path_4_" transform="matrix(.54677 0 0 .54677 176.16 643.85)" points="138.87 159.96 138.87 187.9 55.468 187.9 55.468 159.96"/>
  <polygon id="Rectangle-path_5_" transform="matrix(.54677 0 0 .54677 176.16 643.85)" points="138.87 106.58 138.87 134.51 55.468 134.51 55.468 106.58"/>
  <rect id="Rectangle-path_6_" x="176.16" y="672.98" width="106.31" height="15.272" stroke-width=".54677"/>
  <rect id="Rectangle-path_7_" x="176.16" y="643.85" width="106.31" height="15.272" stroke-width=".54677"/>
  <path id="Shape_16_" d="m297.64 833.99h163.5c2.7618-4.7116 4.8198-9.8567 6.0659-15.272h-169.57z" stroke-width=".54677"/>
  <path id="Shape_17_" d="m448.41 760.45h-120.39v15.272h133.12c-3.4665-5.8494-7.745-10.994-12.727-15.272z" stroke-width=".54677"/>
  <path id="Shape_18_" d="m328.02 731.31v15.272h120.39c5.091-4.2785 9.369-9.4236 12.727-15.272z" stroke-width=".54677"/>
  <path id="Shape_19_" d="m461.14 672.98h-163.5v15.272h169.57c-1.4079-5.4158-3.466-10.56-6.0654-15.272z" stroke-width=".54677"/>
  <path id="Shape_20_" d="m410.88 643.85h-113.24v15.272h152.29c-10.181-9.4236-23.991-15.272-39.047-15.272z" stroke-width=".54677"/>
  <rect id="Rectangle-path_8_" x="328.02" y="702.12" width="45.546" height="15.272" stroke-width=".54677"/>
  <path id="Shape_21_" d="m419.17 717.39h47.658c1.3538-4.8739 2.058-10.019 2.058-15.272h-49.716z" stroke-width=".54677"/>
  <polygon id="Rectangle-path_9_" transform="matrix(.54677 0 0 .54677 176.16 643.85)" points="361.03 266.54 361.03 294.47 277.73 294.47 277.73 266.54"/>
  <path id="Shape_22_" d="m419.17 789.58v15.272h49.716c0-5.2534-0.70424-10.398-2.058-15.272z" stroke-width=".54677"/>
  <path id="Shape_23_" d="m297.64 863.02 113.24 0.16239c15.164 0 28.866-5.8488 39.101-15.272h-152.34z" stroke-width=".54677"/>
  <polygon id="Rectangle-path_10_" transform="matrix(.54677 0 0 .54677 176.16 643.85)" points="694.43 373.22 694.43 401.05 555.57 401.05 555.57 373.22"/>
  <polygon id="Rectangle-path_11_" transform="matrix(.54677 0 0 .54677 176.16 643.85)" points="694.43 319.83 694.43 347.76 555.57 347.76 555.57 319.83"/>
  <polygon id="Rectangle-path_12_" transform="matrix(.54677 0 0 .54677 176.16 643.85)" points="694.43 266.54 694.43 294.47 611.03 294.47 611.03 266.54"/>
  <polygon id="Rectangle-path_13_" transform="matrix(.54677 0 0 .54677 176.16 643.85)" points="694.43 213.25 694.43 241.18 611.03 241.18 611.03 213.25"/>
  <polygon id="Shape_24_" transform="matrix(.54677 0 0 .54677 176.16 643.85)" points="555.57 53.288 555.57 81.22 742.67 81.22 733.06 53.288"/>
  <polygon id="Shape_25_" transform="matrix(.54677 0 0 .54677 176.16 643.85)" points="555.57 0 555.57 27.932 724.25 27.932 714.64 0"/>
  <polygon id="Rectangle-path_14_" transform="matrix(.54677 0 0 .54677 176.16 643.85)" points="1e3 373.22 1e3 401.05 861.03 401.05 861.03 373.22"/>
  <polygon id="Rectangle-path_15_" transform="matrix(.54677 0 0 .54677 176.16 643.85)" points="1e3 319.83 1e3 347.76 861.03 347.76 861.03 319.83"/>
  <polygon id="Rectangle-path_16_" transform="matrix(.54677 0 0 .54677 176.16 643.85)" points="944.43 266.54 944.43 294.47 861.03 294.47 861.03 266.54"/>
  <polygon id="Rectangle-path_17_" transform="matrix(.54677 0 0 .54677 176.16 643.85)" points="944.43 213.25 944.43 241.18 861.03 241.18 861.03 213.25"/>
  <polygon id="Shape_26_" transform="matrix(.54677 0 0 .54677 176.16 643.85)" points="785.56 159.96 777.73 182.55 769.91 159.96 694.43 159.96 611.03 159.96 611.03 187.9 694.43 187.9 694.43 162.24 703.25 187.9 852.22 187.9 861.03 162.24 861.03 187.9 944.43 187.9 944.43 159.96 861.03 159.96"/>
  <polygon id="Shape_27_" transform="matrix(.54677 0 0 .54677 176.16 643.85)" points="803.98 106.58 794.37 134.51 944.43 134.51 944.43 106.58"/>
  <polygon id="Shape_28_" transform="matrix(.54677 0 0 .54677 176.16 643.85)" points="831.32 27.932 1e3 27.932 1e3 0 840.93 0"/>
  <polygon id="Shape_29_" transform="matrix(.54677 0 0 .54677 176.16 643.85)" points="777.73 400.85 787.34 373.22 768.13 373.22"/>
  <polygon id="Shape_30_" transform="matrix(.54677 0 0 .54677 176.16 643.85)" points="796.16 347.76 806.06 319.83 749.5 319.83 759.31 347.76"/>
  <polygon id="Shape_31_" transform="matrix(.54677 0 0 .54677 176.16 643.85)" points="814.88 294.47 824.68 266.54 730.78 266.54 740.59 294.47"/>
  <polygon id="Shape_32_" transform="matrix(.54677 0 0 .54677 176.16 643.85)" points="833.6 241.18 843.11 213.25 712.36 213.25 721.97 241.18"/>
  <polygon id="Shape_33_" transform="matrix(.54677 0 0 .54677 176.16 643.85)" points="761.09 134.51 751.49 106.58 611.03 106.58 611.03 134.51"/>
  <polygon id="Shape_34_" transform="matrix(.54677 0 0 .54677 176.16 643.85)" points="1e3 81.22 1e3 53.288 822.4 53.288 812.9 81.22"/>
  <path id="path1524-1" d="m485.08 777.73-225.66 146.54 22.717 34.988s96.645-62.57 97.638-63.407c0 0 10.412 16.032 24.994 23.463 17.278 8.8034 31.113-0.18134 31.113-0.18134l65.296-42.396s15.035-9.7711 17.979-28.864c2.2015-14.279-7.4932-29.206-7.4932-29.206zm-9.0149 55.595 4.3024 6.6252c1.6706 2.5729 0.0926 6.5629-3.5248 8.912l-56.247 36.527c-3.6174 2.3492-7.9043 2.1679-9.5752-0.40476l-4.3024-6.6252z"/>
  <path id="path1522-2" d="m494.01 957.5 21.136 32.546 40.652-26.4s37.81-24.554 12.424-63.645c-25.386-39.091-63.195-14.537-63.195-14.537l-34.809 22.604s-10.285 7.2252-14.749 17.305l-30.725 69.382s-5.5039 11.3-14.749 17.305l-31.72 20.598s-7.3774 4.7909-10.926-0.6731c-3.5484-5.464 3.8304-10.256 3.8304-10.256 8.7785-5.6997 45.581-29.601 45.581-29.601l-22.539-34.707-45.585 29.603s-37.81 24.554-12.424 63.645c25.386 39.091 63.195 14.537 63.195 14.537l43.055-27.959s10.285-7.2252 14.749-17.306c9.6051-21.69 19.21-43.38 28.815-65.069 0 0 5.5039-11.3 14.749-17.305l28.781-18.689s7.4071-4.8102 10.955 0.65381-3.8586 10.274-3.8586 10.274z"/>
  <path id="Unnamed copy-9" d="m653.2 984.61s-3.1901-5.8003-3.1901-5.8003l-321.49 118.12s3.1901 5.8003 3.1901 5.8003l321.49-118.12z"/>
  <path id="path8048-3" d="m483.72 1207.5-33.048-50.889c38.667-25.11 120.32-5.7861 184.02-47.156l9.5082-6.1747c30.109-19.553 27.533-47.805 12.48-70.985-15.053-23.18-39.815-37.024-69.924-17.471l-43.738 28.404 21.136 32.546 41.633-27.037c6.3388-4.1164 17.661-5.4156 21.581 0.62s-1.8726 15.851-8.2114 19.967c-59.902 38.901-152 23.168-192.89 49.719l-28.411 18.45 57.444 88.456z" dominant-baseline="auto" style="font-feature-settings:normal;font-variant-alternates:normal;font-variant-caps:normal;font-variant-ligatures:normal;font-variant-numeric:normal;font-variant-position:normal;paint-order:normal;shape-padding:0;text-decoration-color:#000000;text-decoration-line:none;text-decoration-style:solid;text-indent:0;text-orientation:mixed;text-transform:none;white-space:normal"/>
 </g>
</svg>
