<?xml version="1.0" encoding="UTF-8" standalone="no"?>
<svg xmlns="http://www.w3.org/2000/svg" width="1706" height="1037"><g stroke="#000" stroke-width="2"><g stroke-linecap="round"><g fill="#fff"><path d="m146 827h548v57h-548z"/><path d="m146 978h548v57h-548z"/><path d="m939 827h756v57h-756z"/><path d="m939 978h756v57h-756z"/></g><path d="m166 847h92v17h-92z"/><path d="m582 998h92v17h-92z"/><path d="m165 998h396v17h-396z"/><path d="m279 847h396v17h-396z"/><path d="m959 847h92v17h-92z"/><path d="m1375 998h92v17h-92z"/><path d="m958 998h396v17h-396z"/><path d="m1072 847h396v17h-396z"/><path d="m1487 998h188v17h-188z"/><path d="m1487 847h188v17h-188z"/></g><g fill="#fff" stroke-linecap="square" color="#000"><path d="m32 90h19v57l-9 9 18 19v1l-9 9v95-58h114v38h94v-38h19v38h397v-38h19v-37l9-9v-1l-18-18v-1l9-9v-38h-643v-19z" stroke-miterlimit="13.2"/><path d="m32 317h19v57l-9 9 18 19v1l-9 9v95-58h114v38h397v-38h19v38h94v-38h19v-37l9-9v-1l-18-18v-1l9-9v-38h-643v-19z"/><path d="m32 544h19v57l-9 9 18 19v1l-9 9v95-58h114v38h94l.003-38h19l.034 38h283.97v-38h19v38h94v-38h19v-37l9-9v-1l-18-18v-1l9-9v-38h-643v-19z"/><path d="m825 90h19v57l-9 9 18 19v1l-9 9v95-58h114v38h94v-38h19v38h397v-38h19v38h189l.058-38h18.942v-37l9-9v-1l-18-18v-1l9-9v-38h-851v-19z" stroke-miterlimit="13.2"/><path d="m825 317h19v57l-9 9 18 19v1l-9 9v95-58h114v38h397v-38h19v38h94v-38h19.04l-.043 38h189l-.066-38h19.07v-37l9-9v-1l-18-18v-1l9-9v-38h-851v-19z"/><path d="m825 544h19v57l-9 9 18 19v1l-9 9v95-58h114v38h94v-38h19l.034 38h283.97v-38h19v38h94v-38h19v38h189l.076-38h18.924v-37l9-9v-1l-18-18v-1l9-9v-38h-851v-19z"/></g></g><g fill="none" stroke="#f60" stroke-width="3"><path d="m240.12 227v32"/><path d="m230.75 227v32"/><path d="m221.37 227v32"/><path d="m212 227v32"/><path d="m202.62 227v32"/><path d="m193.25 227v32"/><path d="m174.5 227v32"/><path d="m249.5 227v32"/><path d="m183.87 227v32"/><path d="m353.54 227v32"/><path d="m344.08 227v32"/><path d="m334.63 227v32"/><path d="m325.18 227v32"/><path d="m315.72 227v32"/><path d="m306.27 227v32"/><path d="m287.36 227v32"/><path d="m372.44 227v32"/><path d="m296.81 227v32"/><path d="m665.5 227v32"/><path d="m381.9 227v32"/><path d="m391.35 227v32"/><path d="m400.8 227v32"/><path d="m410.26 227v32"/><path d="m419.71 227v32"/><path d="m429.16 227v32"/><path d="m362.99 227v32"/><path d="m448.07 227v32"/><path d="m457.52 227v32"/><path d="m466.98 227v32"/><path d="m533.15 227v32"/><path d="m608.78 227v32"/><path d="m618.23 227v32"/><path d="m627.69 227v32"/><path d="m637.14 227v32"/><path d="m646.59 227v32"/><path d="m656.05 227v32"/><path d="m438.62 227v32"/><path d="m476.43 227v32"/><path d="m570.97 227v32"/><path d="m485.88 227v32"/><path d="m514.24 227v32"/><path d="m542.6 227v32"/><path d="m589.87 227v32"/><path d="m495.34 227v32"/><path d="m523.7 227v32"/><path d="m561.51 227v32"/><path d="m599.33 227v32"/><path d="m504.79 227v32"/><path d="m580.42 227v32"/><path d="m552.06 227v32"/><path d="m599.87 454v32"/><path d="m609.25 454v32"/><path d="m618.62 454v32"/><path d="m628 454v32"/><path d="m637.37 454v32"/><path d="m646.75 454v32"/><path d="m665.5 454v32"/><path d="m590.5 454v32"/><path d="m656.12 454v32"/><path d="m486.46 454v32"/><path d="m495.92 454v32"/><path d="m505.37 454v32"/><path d="m514.82 454v32"/><path d="m524.28 454v32"/><path d="m533.73 454v32"/><path d="m552.64 454v32"/><path d="m467.56 454v32"/><path d="m543.19 454v32"/><path d="m174.5 454v32"/><path d="m458.1 454v32"/><path d="m448.65 454v32"/><path d="m439.2 454v32"/><path d="m429.74 454v32"/><path d="m420.29 454v32"/><path d="m410.84 454v32"/><path d="m477.01 454v32"/><path d="m391.93 454v32"/><path d="m382.48 454v32"/><path d="m373.02 454v32"/><path d="m306.85 454v32"/><path d="m231.22 454v32"/><path d="m221.77 454v32"/><path d="m212.31 454v32"/><path d="m202.86 454v32"/><path d="m193.41 454v32"/><path d="m183.95 454v32"/><path d="m401.38 454v32"/><path d="m363.57 454v32"/><path d="m269.03 454v32"/><path d="m354.12 454v32"/><path d="m325.76 454v32"/><path d="m297.39 454v32"/><path d="m250.13 454v32"/><path d="m344.66 454v32"/><path d="m316.3 454v32"/><path d="m278.49 454v32"/><path d="m240.67 454v32"/><path d="m335.21 454v32"/><path d="m259.58 454v32"/><path d="m287.94 454v32"/><path d="m599.87 681v32"/><path d="m609.25 681v32"/><path d="m618.62 681v32"/><path d="m628 681v32"/><path d="m637.37 681v32"/><path d="m646.75 681v32"/><path d="m665.5 681v32"/><path d="m590.5 681v32"/><path d="m656.12 681v32"/><path d="m486.46 681v32"/><path d="m495.92 681v32"/><path d="m505.37 681v32"/><path d="m514.82 681v32"/><path d="m524.28 681v32"/><path d="m533.73 681v32"/><path d="m552.64 681v32"/><path d="m467.56 681v32"/><path d="m543.19 681v32"/><path d="m174.5 681v32"/><path d="m458.1 681v32"/><path d="m448.65 681v32"/><path d="m439.2 681v32"/><path d="m429.74 681v32"/><path d="m420.29 681v32"/><path d="m410.84 681v32"/><path d="m477.01 681v32"/><path d="m391.93 681v32"/><path d="m382.48 681v32"/><path d="m373.02 681v32"/><path d="m306.85 681v32"/><path d="m231.22 681v32"/><path d="m221.77 681v32"/><path d="m212.31 681v32"/><path d="m202.86 681v32"/><path d="m193.41 681v32"/><path d="m183.95 681v32"/><path d="m401.38 681v32"/><path d="m363.57 681v32"/><path d="m354.12 681v32"/><path d="m325.76 681v32"/><path d="m297.39 681v32"/><path d="m250.13 681v32"/><path d="m344.66 681v32"/><path d="m316.3 681v32"/><path d="m240.67 681v32"/><path d="m335.21 681v32"/><path d="m287.94 681v32"/><path d="m1033.12 227v32"/><path d="m1023.75 227v32"/><path d="m1014.37 227v32"/><path d="m1005 227v32"/><path d="m995.62 227v32"/><path d="m986.25 227v32"/><path d="m967.5 227v32"/><path d="m1042.5 227v32"/><path d="m976.87 227v32"/><path d="m1146.54 227v32"/><path d="m1137.08 227v32"/><path d="m1127.63 227v32"/><path d="m1118.18 227v32"/><path d="m1108.72 227v32"/><path d="m1099.27 227v32"/><path d="m1080.36 227v32"/><path d="m1165.44 227v32"/><path d="m1089.81 227v32"/><path d="m1458.5 227v32"/><path d="m1174.9 227v32"/><path d="m1184.35 227v32"/><path d="m1193.8 227v32"/><path d="m1203.26 227v32"/><path d="m1212.71 227v32"/><path d="m1222.16 227v32"/><path d="m1155.99 227v32"/><path d="m1241.07 227v32"/><path d="m1250.52 227v32"/><path d="m1259.98 227v32"/><path d="m1326.15 227v32"/><path d="m1401.78 227v32"/><path d="m1411.23 227v32"/><path d="m1420.69 227v32"/><path d="m1430.14 227v32"/><path d="m1439.59 227v32"/><path d="m1449.05 227v32"/><path d="m1231.62 227v32"/><path d="m1269.43 227v32"/><path d="m1363.97 227v32"/><path d="m1278.88 227v32"/><path d="m1307.24 227v32"/><path d="m1335.61 227v32"/><path d="m1382.87 227v32"/><path d="m1288.34 227v32"/><path d="m1316.7 227v32"/><path d="m1354.51 227v32"/><path d="m1392.33 227v32"/><path d="m1297.79 227v32"/><path d="m1373.42 227v32"/><path d="m1345.06 227v32"/><path d="m1392.87 454v32"/><path d="m1402.25 454v32"/><path d="m1411.62 454v32"/><path d="m1421 454v32"/><path d="m1430.37 454v32"/><path d="m1439.75 454v32"/><path d="m1458.5 454v32"/><path d="m1383.5 454v32"/><path d="m1449.12 454v32"/><path d="m1279.46 454v32"/><path d="m1288.92 454v32"/><path d="m1298.37 454v32"/><path d="m1307.82 454v32"/><path d="m1317.28 454v32"/><path d="m1326.73 454v32"/><path d="m1345.64 454v32"/><path d="m1260.56 454v32"/><path d="m1336.19 454v32"/><path d="m967.5 454v32"/><path d="m1251.1 454v32"/><path d="m1241.65 454v32"/><path d="m1232.2 454v32"/><path d="m1222.74 454v32"/><path d="m1213.29 454v32"/><path d="m1203.84 454v32"/><path d="m1270.01 454v32"/><path d="m1184.93 454v32"/><path d="m1175.48 454v32"/><path d="m1166.02 454v32"/><path d="m1099.85 454v32"/><path d="m1024.22 454v32"/><path d="m1014.77 454v32"/><path d="m1005.31 454v32"/><path d="m995.86 454v32"/><path d="m986.41 454v32"/><path d="m976.95 454v32"/><path d="m1194.38 454v32"/><path d="m1156.57 454v32"/><path d="m1062.03 454v32"/><path d="m1147.12 454v32"/><path d="m1118.76 454v32"/><path d="m1090.39 454v32"/><path d="m1043.13 454v32"/><path d="m1137.66 454v32"/><path d="m1109.3 454v32"/><path d="m1071.49 454v32"/><path d="m1033.67 454v32"/><path d="m1128.21 454v32"/><path d="m1052.58 454v32"/><path d="m1080.94 454v32"/><path d="m1392.87 681v32"/><path d="m1402.25 681v32"/><path d="m1411.62 681v32"/><path d="m1421 681v32"/><path d="m1430.37 681v32"/><path d="m1439.75 681v32"/><path d="m1458.5 681v32"/><path d="m1383.5 681v32"/><path d="m1449.12 681v32"/><path d="m1279.46 681v32"/><path d="m1288.92 681v32"/><path d="m1298.37 681v32"/><path d="m1307.82 681v32"/><path d="m1317.28 681v32"/><path d="m1326.73 681v32"/><path d="m1345.64 681v32"/><path d="m1260.56 681v32"/><path d="m1336.18 681v32"/><path d="m967.5 681v32"/><path d="m1251.1 681v32"/><path d="m1241.65 681v32"/><path d="m1232.2 681v32"/><path d="m1222.74 681v32"/><path d="m1213.29 681v32"/><path d="m1203.84 681v32"/><path d="m1270.01 681v32"/><path d="m1184.93 681v32"/><path d="m1175.48 681v32"/><path d="m1166.02 681v32"/><path d="m1099.85 681v32"/><path d="m1024.22 681v32"/><path d="m1014.77 681v32"/><path d="m1005.31 681v32"/><path d="m995.86 681v32"/><path d="m986.41 681v32"/><path d="m976.95 681v32"/><path d="m1194.38 681v32"/><path d="m1156.57 681v32"/><path d="m1147.12 681v32"/><path d="m1118.76 681v32"/><path d="m1090.39 681v32"/><path d="m1043.13 681v32"/><path d="m1137.66 681v32"/><path d="m1109.3 681v32"/><path d="m1033.67 681v32"/><path d="m1128.21 681v32"/><path d="m1080.94 681v32"/><path d="m1657.06 681v32"/><path d="m1647.61 681v32"/><path d="m1638.17 681v32"/><path d="m1628.72 681v32"/><path d="m1619.28 681v32"/><path d="m1600.39 681v32"/><path d="m1590.94 681v32"/><path d="m1581.5 681v32"/><path d="m1515.39 681v32"/><path d="m1609.83 681v32"/><path d="m1572.06 681v32"/><path d="m1562.61 681v32"/><path d="m1534.28 681v32"/><path d="m1505.94 681v32"/><path d="m1553.17 681v32"/><path d="m1524.83 681v32"/><path d="m1543.72 681v32"/><path d="m1496.5 681v32"/><path d="m1666.5 681v32"/><path d="m1657.06 454v32"/><path d="m1647.61 454v32"/><path d="m1638.17 454v32"/><path d="m1628.72 454v32"/><path d="m1619.28 454v32"/><path d="m1600.39 454v32"/><path d="m1590.94 454v32"/><path d="m1581.5 454v32"/><path d="m1515.39 454v32"/><path d="m1609.83 454v32"/><path d="m1572.06 454v32"/><path d="m1562.61 454v32"/><path d="m1534.28 454v32"/><path d="m1505.94 454v32"/><path d="m1553.17 454v32"/><path d="m1524.83 454v32"/><path d="m1543.72 454v32"/><path d="m1496.5 454v32"/><path d="m1666.5 454v32"/><path d="m1657.06 227v32"/><path d="m1647.61 227v32"/><path d="m1638.17 227v32"/><path d="m1628.72 227v32"/><path d="m1619.28 227v32"/><path d="m1600.39 227v32"/><path d="m1590.94 227v32"/><path d="m1581.5 227v32"/><path d="m1515.39 227v32"/><path d="m1609.83 227v32"/><path d="m1572.06 227v32"/><path d="m1562.61 227v32"/><path d="m1534.28 227v32"/><path d="m1505.94 227v32"/><path d="m1553.17 227v32"/><path d="m1524.83 227v32"/><path d="m1543.72 227v32"/><path d="m1496.5 227v32"/><path d="m1666.5 227v32"/></g><g color="#000"><path d="m49 33h3v20h4l-5 17h-1l-5-17h4z"/><path d="m843 33h3v20h4l-5 17h-1l-5-17h4z"/></g><g font-family="Arial" word-spacing="0" line-height="125%" font-size="18"><text x="256.05" y="77" letter-spacing="-.16"><tspan x="256.05" y="77" letter-spacing="-.16" font-size="19">Component Side Facing Up</tspan></text><g letter-spacing="0"><text y="19.753" x="794.09"><tspan y="19.753" x="794.09" letter-spacing="-.16" font-size="19">PCI Bracket</tspan></text><text x=".059" y="19.753"><tspan x=".059" y="19.753" letter-spacing="-.16" font-size="19">PCI Bracket</tspan></text></g><g letter-spacing="-.16"><text x="278.66" y="807.59"><tspan x="278.66" y="807.59" letter-spacing="-.03" font-size="32">3.3V 32-bit PCI Slot</tspan></text><text y="960.59" x="292.67"><tspan y="960.59" x="292.67" letter-spacing="-.03" font-size="32">5V 32-bit PCI Slot</tspan></text><text y="807.59" x="1176.66"><tspan y="807.59" x="1176.66" letter-spacing="-.03" font-size="32">3.3V 64-bit PCI Slot</tspan></text><text x="1190.67" y="960.59"><tspan x="1190.67" y="960.59" letter-spacing="-.03" font-size="32">5V 64-bit PCI Slot</tspan></text><text y="174.09" x="224.66"><tspan y="174.09" x="224.66" letter-spacing="-.03" font-size="32">3.3V 32-bit PCI Card</tspan></text><text x="237.67" y="401.59"><tspan x="237.67" y="401.59" letter-spacing="-.03" font-size="32">5V 32-bit PCI Card</tspan></text><text y="629.27" x="103.48"><tspan y="629.27" x="103.48" letter-spacing="-.03" font-size="32">Universal (3.3V &amp; 5V) 32-bit PCI Card</tspan></text><text x="1121.66" y="174.09"><tspan x="1121.66" y="174.09" letter-spacing="-.03" font-size="32">3.3V 64-bit PCI Card</tspan></text><text y="401.61" x="1134.67"><tspan y="401.61" x="1134.67" letter-spacing="-.03" font-size="32">5V 64-bit PCI Card</tspan></text><text x="1000.48" y="629.27"><tspan x="1000.48" y="629.27" letter-spacing="-.03" font-size="32">Universal (3.3V &amp; 5V) 64-bit PCI Card</tspan></text><text y="77" x="1154.05"><tspan y="77" x="1154.05" letter-spacing="-.16" font-size="19">Component Side Facing Up</tspan></text></g></g></svg>