<?xml version="1.0" encoding="UTF-8" standalone="no"?>
<svg
   xmlns:dc="http://purl.org/dc/elements/1.1/"
   xmlns:cc="http://creativecommons.org/ns#"
   xmlns:rdf="http://www.w3.org/1999/02/22-rdf-syntax-ns#"
   xmlns:svg="http://www.w3.org/2000/svg"
   xmlns="http://www.w3.org/2000/svg"
   id="svg3991"
   version="1.1"
   viewBox="0 0 200 64.924057"
   height="64.924057mm"
   width="200mm">
  <defs
     id="defs3985">
    <clipPath
       id="clipPath3916"
       clipPathUnits="userSpaceOnUse">
      <path
         style="clip-rule:evenodd"
         id="path3914"
         d="M 443.11,51.01 H 494 V 33 h -50.89 z" />
    </clipPath>
    <clipPath
       id="clipPath3922"
       clipPathUnits="userSpaceOnUse">
      <path
         id="path3920"
         d="M 0,792 H 612 V 0.5 H 0 Z" />
    </clipPath>
  </defs>
  <metadata
     id="metadata3988">
    <rdf:RDF>
      <cc:Work
         rdf:about="">
        <dc:format>image/svg+xml</dc:format>
        <dc:type
           rdf:resource="http://purl.org/dc/dcmitype/StillImage" />
        <dc:title></dc:title>
      </cc:Work>
    </rdf:RDF>
  </metadata>
  <g
     transform="translate(-2.0000407,-222.07593)"
     id="layer1">
    <path
       d="M 44.739541,285.25738 H 180.20659 V 272.65499 H 44.739541 Z"
       style="fill:#ffffff;fill-opacity:1;fill-rule:nonzero;stroke:none;stroke-width:4.34565353"
       id="path3924" />
    <path
       d="m 19.621665,224.40955 c 0,0 22.141103,0.20424 35.62132,0 13.484562,-0.1999 43.256633,0.60404 37.824566,20.12472 -4.806292,17.26962 -34.834757,18.57767 -48.697391,18.41253 -4.263085,-0.0521 -7.000847,0.0956 -7.000847,0.0956 L 30.707426,286.99999 2.0000407,286.887 11.929859,251.17443 c 0,0 24.396497,0 35.873368,0 11.859287,0 17.899745,-2.61609 18.72542,-7.05735 0.725724,-3.91543 -4.523826,-6.02307 -15.088109,-6.02307 -6.896551,0 -35.873368,0 -35.873368,0 l 4.054495,-13.68446"
       style="fill:#000000;fill-opacity:1;fill-rule:nonzero;stroke:none;stroke-width:4.34565353"
       id="path3926" />
    <path
       d="m 14.671966,241.31414 -1.512288,5.43206 c 0,0 18.108338,0 23.21448,0 7.84825,0 8.921627,-5.43206 2.616084,-5.43206 -5.805793,0 -24.318276,0 -24.318276,0"
       style="fill:#ff0000;fill-opacity:1;fill-rule:nonzero;stroke:none;stroke-width:4.34565353"
       id="path3928" />
    <path
       d="m 190.13641,267.00999 -23.21883,0.12167 11.92013,-42.86552 23.16233,0.0739 -11.86363,42.66997"
       style="fill:#000000;fill-opacity:1;fill-rule:nonzero;stroke:none;stroke-width:4.34565353"
       id="path3930" />
    <path
       d="m 147.30565,240.43632 c 0.63447,-4.68462 -3.37657,-7.37023 -10.8989,-7.37023 -8.43491,0 -14.78826,4.43256 -17.27832,13.11518 -1.81213,6.30554 -1.27762,12.23736 10.92063,12.23736 7.72657,0 12.33731,-3.31139 14.48841,-7.61793 h 23.07107 c -5.46683,11.61159 -20.99385,18.60809 -40.30593,18.60809 -24.19225,0 -36.216677,-9.11718 -32.023121,-23.72727 4.176173,-14.54925 22.832061,-23.60559 43.265321,-23.60559 22.36273,0 32.91398,6.80529 31.53206,18.36039 h -22.77122"
       style="fill:#000000;fill-opacity:1;fill-rule:nonzero;stroke:none;stroke-width:4.34565353"
       id="path3932" />
    <path
       d="m 37.873409,286.887 4.284814,-15.7921 H 189.00219 l -4.39345,15.7921 z m 18.460335,-3.00284 0.517133,-2.34665 h -5.658041 l 1.703496,-7.71788 h -4.124025 l -2.220629,10.06453 z M 69.04478,273.55454 c -3.911088,0 -7.039959,2.05549 -7.735263,5.21478 -0.756144,3.42438 1.451448,5.37992 5.397301,5.37992 3.71988,0 7.026922,-1.92947 7.783065,-5.35384 0.586664,-2.6552 -0.956043,-5.24086 -5.445103,-5.24086 z m -0.577972,2.45964 c 1.825174,-0.0391 2.203246,1.41234 1.89905,2.78122 -0.365034,1.66438 -1.334115,2.8942 -3.115833,2.8942 -1.972927,0 -2.107642,-1.60789 -1.825174,-2.8942 0.282467,-1.26893 1.173326,-2.78122 3.041957,-2.78122 z m 22.549595,1.65135 c 0.239011,-2.58567 -1.573127,-4.11099 -5.414684,-4.11099 -3.511288,0 -6.71838,2.02507 -7.435413,5.28431 -0.721378,3.26794 1.342807,5.31039 5.501597,5.31039 3.315734,0 5.983965,-1.56443 6.926972,-4.16313 h -3.967582 c -0.36938,0.96039 -1.160289,1.70349 -2.485714,1.70349 -2.09895,0 -2.190209,-1.32977 -1.877322,-2.73776 0.43022,-1.94685 1.520979,-2.93766 2.972427,-2.93766 1.290659,0 1.977272,0.5997 1.868631,1.65135 z m 6.092606,6.21863 0.760489,-1.32977 h 4.106642 l 0.19555,1.32977 h 4.1023 l -2.28581,-10.06453 h -4.189212 l -6.727071,10.06453 z m 4.615081,-3.42438 h -2.603044 l 2.068534,-3.60689 z m 18.47337,3.42438 0.51714,-2.34665 h -5.65804 l 1.70349,-7.71788 h -4.12402 l -2.21629,10.06453 z m 18.99051,0 c 3.26359,0 5.58416,-0.78222 6.07957,-3.03327 0.24336,-1.09076 -0.28247,-2.02507 -1.58616,-2.30754 0.8952,-0.40415 1.89905,-1.16029 2.12502,-2.19455 0.44326,-1.99901 -1.69481,-2.52917 -4.52383,-2.52917 h -6.00569 l -2.22063,10.06453 z m 0.22597,-4.20659 c 1.31239,0 2.25974,0.0565 2.06419,0.93431 -0.16514,0.75614 -0.96908,0.92563 -1.98162,0.92563 h -1.7991 l 0.40849,-1.85994 z m 0.91694,-3.50695 c 0.87347,0 1.67307,0.013 1.49925,0.79526 -0.13037,0.58666 -0.78657,0.87782 -1.60789,0.87782 h -1.71219 l 0.36938,-1.67308 z m 9.86898,3.32443 c -0.76484,3.46783 1.13856,4.65419 5.03226,4.65419 4.17617,0 6.35769,-1.41233 7.06603,-4.64115 l 1.2559,-5.68846 h -4.11968 l -1.32977,6.02307 c -0.23901,1.09076 -0.84306,1.8469 -2.32927,1.8469 -1.69481,0 -1.7513,-0.85174 -1.52967,-1.8469 l 1.32542,-6.02307 h -4.11968 z m 28.23805,-2.75515 c 0.0913,-1.75999 -1.18202,-3.18536 -4.67592,-3.18536 -3.14191,0 -5.68412,1.07772 -6.15779,3.21578 -0.84741,3.84156 6.61408,2.79426 6.27947,4.31958 -0.1043,0.47368 -0.84741,0.73876 -1.87733,0.73876 -0.3998,0 -0.81698,-0.0826 -1.11248,-0.25204 -0.31289,-0.16514 -0.49975,-0.43022 -0.50845,-0.79526 h -3.94585 c -0.31289,1.81648 1.51229,3.36788 4.82802,3.36788 3.45914,0 6.13606,-1.13421 6.6532,-3.46783 0.80394,-3.65904 -6.63147,-2.72472 -6.29685,-4.23266 0.0782,-0.36504 0.52582,-0.57363 1.43406,-0.57363 0.40415,0 0.75615,0.0565 1.02558,0.18252 0.26943,0.12602 0.45194,0.33461 0.44325,0.68226 h 3.91109"
       style="fill:#ff0000;fill-opacity:1;fill-rule:nonzero;stroke:none;stroke-width:4.34565353"
       id="path3934" />
  </g>
</svg>
